<svg xmlns="http://www.w3.org/2000/svg" width="900" height="240" viewBox="0 0 900 240" role="img" aria-labelledby="t d" xmlns:c2pa="http://c2pa.org/manifest"><metadata><c2pa:manifest>AAAWgmp1bWIAAAAeanVtZGMycGEAEQAQgAAAqgA4m3EDYzJwYQAAABZcanVtYgAAAEdqdW1kYzJtYQARABCAAACqADibcQN1cm46YzJwYTo0OGUxMWFjMi1mNmNkLTRkYTMtYTU1OS1hYzg1M2IxMTlkZDMAAAADl2p1bWIAAAApanVtZGMyYXMAEQAQgAAAqgA4m3EDYzJwYS5hc3NlcnRpb25zAAAAALxqdW1iAAAARGp1bWRjYm9yABEAEIAAAKoAOJtxE2MycGEuaW5ncmVkaWVudC52MwAAAAAYYzJzaKlWi4VMcs5wE8HNatVnQF0AAABwY2JvcqNpZGM6Zm9ybWF0bWltYWdlL3N2Zyt4bWxqaW5zdGFuY2VJRHgseG1wOmlpZDo3Nzc2NWJjOS00YjMwLTQ4YTQtODBiMS1jZjVjYzJlZGE1OWZscmVsYXRpb25zaGlwaHBhcmVudE9mAAAB4mp1bWIAAABBanVtZGNib3IAEQAQgAAAqgA4m3ETYzJwYS5hY3Rpb25zLnYyAAAAABhjMnNoVIu86yQFsa2/tnYSCcU6EwAAAZljYm9yomdhY3Rpb25zgqJmYWN0aW9ua2MycGEub3BlbmVkanBhcmFtZXRlcnOha2luZ3JlZGllbnRzgaJjdXJseC1zZWxmI2p1bWJmPWMycGEuYXNzZXJ0aW9ucy9jMnBhLmluZ3JlZGllbnQudjNkaGFzaFggTYX+MX2HR/YwAql3JJLYM/nWJg4cK9yHPqa0W6b7SZOkZmFjdGlvbngdY29tLmFudGhyb3BpYy5jbGF1ZGUucHJvdmlkZWRqcGFyYW1ldGVyc6F4H2NvbS5hbnRocm9waWMub3JpZ2luLWNvbmZpZGVuY2VndW5rbm93bmtkZXNjcmlwdGlvbnhmQ2xhdWRlIHByb3ZpZGVkIHRoaXMgZmlsZSBhdCB0aGUgcmVxdWVzdCBvZiBhIHVzZXIgYW5kIG1heSBoYXZlIGNyZWF0ZWQgb3IgbW9kaWZpZWQgdGhlIGZpbGUgY29udGVudHMubXNvZnR3YXJlQWdlbnShZG5hbWVmQ2xhdWRlcmFsbEFjdGlvbnNJbmNsdWRlZPUAAADIanVtYgAAAEBqdW1kY2JvcgARABCAAACqADibcRNjMnBhLmhhc2guZGF0YQAAAAAYYzJzaMxEDHYLdZ8UWHFdBupsgx4AAACAY2JvcqVjYWxnZnNoYTI1NmNwYWRNAAAAAAAAAAAAAAAAAGRoYXNoWCAIFahInhd/ypyzYKU0xOVpCgbnrkdOwk4sruIy1QcKqGRuYW1lbmp1bWJmIG1hbmlmZXN0amV4Y2x1c2lvbnOBomVzdGFydBi3Zmxlbmd0aBkeBAAAAj5qdW1iAAAAJ2p1bWRjMmNsABEAEIAAAKoAOJtxA2MycGEuY2xhaW0udjIAAAACD2Nib3KlY2FsZ2ZzaGEyNTZpc2lnbmF0dXJleE1zZWxmI2p1bWJmPS9jMnBhL3VybjpjMnBhOjQ4ZTExYWMyLWY2Y2QtNGRhMy1hNTU5LWFjODUzYjExOWRkMy9jMnBhLnNpZ25hdHVyZWppbnN0YW5jZUlEeCx4bXA6aWlkOjA1MzRhYTE3LTQ0ZmItNDExYi1iOGQ2LWFlZTA0YzBkOTliYXJjcmVhdGVkX2Fzc2VydGlvbnODomN1cmx4LXNlbGYjanVtYmY9YzJwYS5hc3NlcnRpb25zL2MycGEuaW5ncmVkaWVudC52M2RoYXNoWCBNhf4xfYdH9jACqXckktgz+dYmDhwr3Ic+prRbpvtJk6JjdXJseCpzZWxmI2p1bWJmPWMycGEuYXNzZXJ0aW9ucy9jMnBhLmFjdGlvbnMudjJkaGFzaFggmsdrEezlY6ZiixIieCWCG+hYjGcwnYgh89ph8oo4CEaiY3VybHgpc2VsZiNqdW1iZj1jMnBhLmFzc2VydGlvbnMvYzJwYS5oYXNoLmRhdGFkaGFzaFgg0jWrhT480pS7OrRyWfLS89rm9vev+NSuaKoX0tskFTJ0Y2xhaW1fZ2VuZXJhdG9yX2luZm+jZG5hbWVvQW50aHJvcGljIEZpbGVzZ3ZlcnNpb25lMS4wLjBrc3BlY1ZlcnNpb25lMi40LjAAABA4anVtYgAAAChqdW1kYzJjcwARABCAAACqADibcQNjMnBhLnNpZ25hdHVyZQAAABAIY2JvctKEWQISogEmGCFZAgowggIGMIIBjaADAgECAhRA5aAK7sI50L64g/oGQgU9Z1UTADAKBggqhkjOPQQDAzBJMRcwFQYDVQQKEw5BbnRocm9waWMsIFBCQzEuMCwGA1UEAxMlQW50aHJvcGljIENvbnRlbnQgQ3JlZGVudGlhbHMgUm9vdCBDQTAeFw0yNjA4MDcxODQzNTZaFw0yODA4MDYxOTQzNTZaMEQxFzAVBgNVBAoTDkFudGhyb3BpYywgUEJDMSkwJwYDVQQDEyBBbnRocm9waWMgQ2xhdWRlIENvbnRlbnQgU2lnbmluZzBZMBMGByqGSM49AgEGCCqGSM49AwEHA0IABJh6CmvLUBgFFNU0vUKlOVtE6djd17L5SuwX0LemFisBM3dkd/3cyjxFA3Qo5S46fX0/ihY0VZ7mfb9KF703t5OjWDBWMA4GA1UdDwEB/wQEAwIHgDAVBgNVHSUEDjAMBgorBgEEAYPoXgIBMAwGA1UdEwEB/wQCMAAwHwYDVR0jBBgwFoAUzlHiBIFOZFsj+OPEz5o+nMHXXMIwCgYIKoZIzj0EAwMDZwAwZAIwMXMdFJ4BetLLVY7ORuE9noqbbAZOZn/aArXyTwFAZfKrPzxF2vPoJNf1+UCdg1XGAjBwX1zd9WGqYkqmL5SFqw1QySjr1zJfpJM9+1rdDwSPLMOPOjKuiXjoU/pUUeG9RwmhY3BhZFkNngAAAAAAAAAAAAAAAAAAAAAAAAAAAAAAAAAAAAAAAAAAAAAAAAAAAAAAAAAAAAAAAAAAAAAAAAAAAAAAAAAAAAAAAAAAAAAAAAAAAAAAAAAAAAAAAAAAAAAAAAAAAAAAAAAAAAAAAAAAAAAAAAAAAAAAAAAAAAAAAAAAAAAAAAAAAAAAAAAAAAAAAAAAAAAAAAAAAAAAAAAAAAAAAAAAAAAAAAAAAAAAAAAAAAAAAAAAAAAAAAAAAAAAAAAAAAAAAAAAAAAAAAAAAAAAAAAAAAAAAAAAAAAAAAAAAAAAAAAAAAAAAAAAAAAAAAAAAAAAAAAAAAAAAAAAAAAAAAAAAAAAAAAAAAAAAAAAAAAAAAAAAAAAAAAAAAAAAAAAAAAAAAAAAAAAAAAAAAAAAAAAAAAAAAAAAAAAAAAAAAAAAAAAAAAAAAAAAAAAAAAAAAAAAAAAAAAAAAAAAAAAAAAAAAAAAAAAAAAAAAAAAAAAAAAAAAAAAAAAAAAAAAAAAAAAAAAAAAAAAAAAAAAAAAAAAAAAAAAAAAAAAAAAAAAAAAAAAAAAAAAAAAAAAAAAAAAAAAAAAAAAAAAAAAAAAAAAAAAAAAAAAAAAAAAAAAAAAAAAAAAAAAAAAAAAAAAAAAAAAAAAAAAAAAAAAAAAAAAAAAAAAAAAAAAAAAAAAAAAAAAAAAAAAAAAAAAAAAAAAAAAAAAAAAAAAAAAAAAAAAAAAAAAAAAAAAAAAAAAAAAAAAAAAAAAAAAAAAAAAAAAAAAAAAAAAAAAAAAAAAAAAAAAAAAAAAAAAAAAAAAAAAAAAAAAAAAAAAAAAAAAAAAAAAAAAAAAAAAAAAAAAAAAAAAAAAAAAAAAAAAAAAAAAAAAAAAAAAAAAAAAAAAAAAAAAAAAAAAAAAAAAAAAAAAAAAAAAAAAAAAAAAAAAAAAAAAAAAAAAAAAAAAAAAAAAAAAAAAAAAAAAAAAAAAAAAAAAAAAAAAAAAAAAAAAAAAAAAAAAAAAAAAAAAAAAAAAAAAAAAAAAAAAAAAAAAAAAAAAAAAAAAAAAAAAAAAAAAAAAAAAAAAAAAAAAAAAAAAAAAAAAAAAAAAAAAAAAAAAAAAAAAAAAAAAAAAAAAAAAAAAAAAAAAAAAAAAAAAAAAAAAAAAAAAAAAAAAAAAAAAAAAAAAAAAAAAAAAAAAAAAAAAAAAAAAAAAAAAAAAAAAAAAAAAAAAAAAAAAAAAAAAAAAAAAAAAAAAAAAAAAAAAAAAAAAAAAAAAAAAAAAAAAAAAAAAAAAAAAAAAAAAAAAAAAAAAAAAAAAAAAAAAAAAAAAAAAAAAAAAAAAAAAAAAAAAAAAAAAAAAAAAAAAAAAAAAAAAAAAAAAAAAAAAAAAAAAAAAAAAAAAAAAAAAAAAAAAAAAAAAAAAAAAAAAAAAAAAAAAAAAAAAAAAAAAAAAAAAAAAAAAAAAAAAAAAAAAAAAAAAAAAAAAAAAAAAAAAAAAAAAAAAAAAAAAAAAAAAAAAAAAAAAAAAAAAAAAAAAAAAAAAAAAAAAAAAAAAAAAAAAAAAAAAAAAAAAAAAAAAAAAAAAAAAAAAAAAAAAAAAAAAAAAAAAAAAAAAAAAAAAAAAAAAAAAAAAAAAAAAAAAAAAAAAAAAAAAAAAAAAAAAAAAAAAAAAAAAAAAAAAAAAAAAAAAAAAAAAAAAAAAAAAAAAAAAAAAAAAAAAAAAAAAAAAAAAAAAAAAAAAAAAAAAAAAAAAAAAAAAAAAAAAAAAAAAAAAAAAAAAAAAAAAAAAAAAAAAAAAAAAAAAAAAAAAAAAAAAAAAAAAAAAAAAAAAAAAAAAAAAAAAAAAAAAAAAAAAAAAAAAAAAAAAAAAAAAAAAAAAAAAAAAAAAAAAAAAAAAAAAAAAAAAAAAAAAAAAAAAAAAAAAAAAAAAAAAAAAAAAAAAAAAAAAAAAAAAAAAAAAAAAAAAAAAAAAAAAAAAAAAAAAAAAAAAAAAAAAAAAAAAAAAAAAAAAAAAAAAAAAAAAAAAAAAAAAAAAAAAAAAAAAAAAAAAAAAAAAAAAAAAAAAAAAAAAAAAAAAAAAAAAAAAAAAAAAAAAAAAAAAAAAAAAAAAAAAAAAAAAAAAAAAAAAAAAAAAAAAAAAAAAAAAAAAAAAAAAAAAAAAAAAAAAAAAAAAAAAAAAAAAAAAAAAAAAAAAAAAAAAAAAAAAAAAAAAAAAAAAAAAAAAAAAAAAAAAAAAAAAAAAAAAAAAAAAAAAAAAAAAAAAAAAAAAAAAAAAAAAAAAAAAAAAAAAAAAAAAAAAAAAAAAAAAAAAAAAAAAAAAAAAAAAAAAAAAAAAAAAAAAAAAAAAAAAAAAAAAAAAAAAAAAAAAAAAAAAAAAAAAAAAAAAAAAAAAAAAAAAAAAAAAAAAAAAAAAAAAAAAAAAAAAAAAAAAAAAAAAAAAAAAAAAAAAAAAAAAAAAAAAAAAAAAAAAAAAAAAAAAAAAAAAAAAAAAAAAAAAAAAAAAAAAAAAAAAAAAAAAAAAAAAAAAAAAAAAAAAAAAAAAAAAAAAAAAAAAAAAAAAAAAAAAAAAAAAAAAAAAAAAAAAAAAAAAAAAAAAAAAAAAAAAAAAAAAAAAAAAAAAAAAAAAAAAAAAAAAAAAAAAAAAAAAAAAAAAAAAAAAAAAAAAAAAAAAAAAAAAAAAAAAAAAAAAAAAAAAAAAAAAAAAAAAAAAAAAAAAAAAAAAAAAAAAAAAAAAAAAAAAAAAAAAAAAAAAAAAAAAAAAAAAAAAAAAAAAAAAAAAAAAAAAAAAAAAAAAAAAAAAAAAAAAAAAAAAAAAAAAAAAAAAAAAAAAAAAAAAAAAAAAAAAAAAAAAAAAAAAAAAAAAAAAAAAAAAAAAAAAAAAAAAAAAAAAAAAAAAAAAAAAAAAAAAAAAAAAAAAAAAAAAAAAAAAAAAAAAAAAAAAAAAAAAAAAAAAAAAAAAAAAAAAAAAAAAAAAAAAAAAAAAAAAAAAAAAAAAAAAAAAAAAAAAAAAAAAAAAAAAAAAAAAAAAAAAAAAAAAAAAAAAAAAAAAAAAAAAAAAAAAAAAAAAAAAAAAAAAAAAAAAAAAAAAAAAAAAAAAAAAAAAAAAAAAAAAAAAAAAAAAAAAAAAAAAAAAAAAAAAAAAAAAAAAAAAAAAAAAAAAAAAAAAAAAAAAAAAAAAAAAAAAAAAAAAAAAAAAAAAAAAAAAAAAAAAAAAAAAAAAAAAAAAAAAAAAAAAAAAAAAAAAAAAAAAAAAAAAAAAAAAAAAAAAAAAAAAAAAAAAAAAAAAAAAAAAAAAAAAAAAAAAAAAAAAAAAAAAAAAAAAAAAAAAAAAAAAAAAAAAAAAAAAAAAAAAAAAAAAAAAAAAAAAAAAAAAAAAAAAAAAAAAAAAAAAAAAAAAAAAAAAAAAAAAAAAAAAAAAAAAAAAAAAAAAAAAAAAAAAAAAAAAAAAAAAAAAAAAAAAAAAAAAAAAAAAAAAAAAAAAAAAAAAAAAAAAAAAAAAAAAAAAAAAAAAAAAAAAAAAAAAAAAAAAAAAAAAAAAAAAAAAAAAAAAAAAAAAAAAAAAAAAAAAAAAAAAAAAAAAAAAAAAAAAAAAAAAAAAAAAAAAAAAAAAAAAAAAAAAAAAAAAAAAAAAAAAAAAAAAAAAAAAAAAAAAAAAAAAAAAAAAAAAAAAAAAAAAAAAAAAAAAAAAAAAAAAAAAAAAAAAAAAAAAAAAAAAAAAAAAAAAAAAAAAAAAAAAAAAAAAAAAAAAAAAAAAAAAAAAAAAAAAAAAAAAAAAAAAAAAAAAAAAAAAAAAAAAAAAAAAAAAAAAAAAAAAAAAAAAAAAAAAAAAAAAAAAAAAAAAAAAAAAAAAAAAAAAAAAAAAAAAAAAAAAAAAAAAAAAAAAAAAAAAAAAAAAAAAAAAAAAAAAAAAAAAAAAAAAAAAAAAAAAAAAAAAAAAAAAAAAAAAAAAAAAAAAAAAAAAAAAAAAAAAAAAAAAAAAAAAAAAAAAAAAAAAAAAAAAAAAAAAAAAAAAAAAAAAAAAAAAAAAAAAAAAAAAAAAAAAAAAAAAAAAAAAAAAAAAAAAAAAAAAAAAAAAAAAAAAAAAAAAAAAAAAAAAAAAAAAAAAAAAAAAAAAAAAAAAAAAAAAAAAAAAAAAAAAAAAAAAAAAAAAAAAAAAAAAAAAAAAAAAAAAAAAAAAAAAAAAAAAAAAAAAAAAAAAAAAAAAAAAAAAAAAAAAAAAAAAAAAAAAAAAAAAAAAAAAAAAAAAAAAAAAAAAAAAAAAAAAAAAAAAAAAAAAAAAAAAAAAAAAAAAAAAAAAAAAAAAAAAAAAAAAAAAAAAAAAAAAAAAAAAAAAAAAAAAAAAAAAAAAAAAAAAAAAAAAAAAAAAAAAAAAAAAAAAAAAAAAAAAAAAAAAAAAAAAAAAAAAAAAAAAAAAAAAAAAAAAAAAAAAAAAAAAAAAAAAAAAAAAAAAAAAAAAAAAAAAAAAAAAAAAAAAAAAAAAAAAAAAAAAAAAAAAAAAAAAAAAAAAAAAAAAAAAAAAAAAAAAAAAAAAAAAAAAAAAAAAAAAAAAAAAAAAAAAAAAAAAAAAAAAAAAAAAAAAAAAAAAAAAAAAAAAAAAAAAAAAAAAAAAAAAAAAAAAAAAAAAAAAAAAAAAAAAAAAAAAAAAAAAAAAAAAAAAAAAAAAAAAPZYQAW8wLVnVT0JSb1vFacmm5PsHVx+lZAT82e45rVbw3fdAX89oXQA+ign1ilOdECzOJCaRCO2ngRg3gmn8OFalzw=</c2pa:manifest></metadata>
<title id="t">Modulation concept</title>
<desc id="d">A slow message wave and a fast carrier wave are combined by modulation into a modulated signal.</desc>
<defs><marker id="a" viewBox="0 0 10 10" refX="9" refY="5" markerWidth="8" markerHeight="8" orient="auto-start-reverse"><path d="M0,0 L10,5 L0,10 z" fill="#000"/></marker></defs>
<rect x="0" y="0" width="900" height="240" fill="#fff"/>
<text x="140" y="24.9" text-anchor="middle" font-family="Arial, Helvetica, sans-serif" font-size="14" font-weight="bold" fill="#000">Message signal</text>
<rect x="15" y="40" width="250" height="120" rx="8" fill="#fff" stroke="#000" stroke-width="1.5"/>
<text x="140" y="189.2" text-anchor="middle" font-family="Arial, Helvetica, sans-serif" font-size="12" fill="#000">(the parcel)</text>
<text x="450" y="24.9" text-anchor="middle" font-family="Arial, Helvetica, sans-serif" font-size="14" font-weight="bold" fill="#000">Carrier wave</text>
<rect x="325" y="40" width="250" height="120" rx="8" fill="#fff" stroke="#000" stroke-width="1.5"/>
<text x="450" y="189.2" text-anchor="middle" font-family="Arial, Helvetica, sans-serif" font-size="12" fill="#000">(the truck)</text>
<text x="760" y="24.9" text-anchor="middle" font-family="Arial, Helvetica, sans-serif" font-size="14" font-weight="bold" fill="#000">Modulated signal</text>
<rect x="635" y="40" width="250" height="120" rx="8" fill="#fff" stroke="#000" stroke-width="1.5"/>
<text x="760" y="189.2" text-anchor="middle" font-family="Arial, Helvetica, sans-serif" font-size="12" fill="#000">(the parcel loaded on the truck)</text>
<path d="M35.0,100.0 L245.0,100.0" fill="none" stroke="#000" stroke-width="0.75"/>
<path d="M35.0,100.0 L35.7,98.5 L36.4,97.0 L37.1,95.5 L37.8,94.0 L38.5,92.5 L39.2,91.0 L39.9,89.6 L40.6,88.2 L41.3,86.7 L42.0,85.4 L42.7,84.0 L43.4,82.7 L44.1,81.4 L44.8,80.1 L45.5,78.8 L46.2,77.6 L46.9,76.5 L47.6,75.4 L48.3,74.3 L49.0,73.2 L49.7,72.3 L50.4,71.3 L51.1,70.4 L51.8,69.6 L52.5,68.8 L53.2,68.1 L53.9,67.4 L54.6,66.8 L55.3,66.3 L56.0,65.8 L56.7,65.3 L57.4,65.0 L58.1,64.6 L58.8,64.4 L59.5,64.2 L60.2,64.1 L60.9,64.0 L61.6,64.0 L62.3,64.1 L63.0,64.2 L63.7,64.4 L64.4,64.6 L65.1,65.0 L65.8,65.3 L66.5,65.8 L67.2,66.3 L67.9,66.8 L68.6,67.4 L69.3,68.1 L70.0,68.8 L70.7,69.6 L71.4,70.4 L72.1,71.3 L72.8,72.3 L73.5,73.2 L74.2,74.3 L74.9,75.4 L75.6,76.5 L76.3,77.6 L77.0,78.8 L77.7,80.1 L78.4,81.4 L79.1,82.7 L79.8,84.0 L80.5,85.4 L81.2,86.7 L81.9,88.2 L82.6,89.6 L83.3,91.0 L84.0,92.5 L84.7,94.0 L85.4,95.5 L86.1,97.0 L86.8,98.5 L87.5,100.0 L88.2,101.5 L88.9,103.0 L89.6,104.5 L90.3,106.0 L91.0,107.5 L91.7,109.0 L92.4,110.4 L93.1,111.8 L93.8,113.3 L94.5,114.6 L95.2,116.0 L95.9,117.3 L96.6,118.6 L97.3,119.9 L98.0,121.2 L98.7,122.4 L99.4,123.5 L100.1,124.6 L100.8,125.7 L101.5,126.8 L102.2,127.7 L102.9,128.7 L103.6,129.6 L104.3,130.4 L105.0,131.2 L105.7,131.9 L106.4,132.6 L107.1,133.2 L107.8,133.7 L108.5,134.2 L109.2,134.7 L109.9,135.0 L110.6,135.4 L111.3,135.6 L112.0,135.8 L112.7,135.9 L113.4,136.0 L114.1,136.0 L114.8,135.9 L115.5,135.8 L116.2,135.6 L116.9,135.4 L117.6,135.0 L118.3,134.7 L119.0,134.2 L119.7,133.7 L120.4,133.2 L121.1,132.6 L121.8,131.9 L122.5,131.2 L123.2,130.4 L123.9,129.6 L124.6,128.7 L125.3,127.7 L126.0,126.8 L126.7,125.7 L127.4,124.6 L128.1,123.5 L128.8,122.4 L129.5,121.2 L130.2,119.9 L130.9,118.6 L131.6,117.3 L132.3,116.0 L133.0,114.6 L133.7,113.3 L134.4,111.8 L135.1,110.4 L135.8,109.0 L136.5,107.5 L137.2,106.0 L137.9,104.5 L138.6,103.0 L139.3,101.5 L140.0,100.0 L140.7,98.5 L141.4,97.0 L142.1,95.5 L142.8,94.0 L143.5,92.5 L144.2,91.0 L144.9,89.6 L145.6,88.2 L146.3,86.7 L147.0,85.4 L147.7,84.0 L148.4,82.7 L149.1,81.4 L149.8,80.1 L150.5,78.8 L151.2,77.6 L151.9,76.5 L152.6,75.4 L153.3,74.3 L154.0,73.2 L154.7,72.3 L155.4,71.3 L156.1,70.4 L156.8,69.6 L157.5,68.8 L158.2,68.1 L158.9,67.4 L159.6,66.8 L160.3,66.3 L161.0,65.8 L161.7,65.3 L162.4,65.0 L163.1,64.6 L163.8,64.4 L164.5,64.2 L165.2,64.1 L165.9,64.0 L166.6,64.0 L167.3,64.1 L168.0,64.2 L168.7,64.4 L169.4,64.6 L170.1,65.0 L170.8,65.3 L171.5,65.8 L172.2,66.3 L172.9,66.8 L173.6,67.4 L174.3,68.1 L175.0,68.8 L175.7,69.6 L176.4,70.4 L177.1,71.3 L177.8,72.3 L178.5,73.2 L179.2,74.3 L179.9,75.4 L180.6,76.5 L181.3,77.6 L182.0,78.8 L182.7,80.1 L183.4,81.4 L184.1,82.7 L184.8,84.0 L185.5,85.4 L186.2,86.7 L186.9,88.2 L187.6,89.6 L188.3,91.0 L189.0,92.5 L189.7,94.0 L190.4,95.5 L191.1,97.0 L191.8,98.5 L192.5,100.0 L193.2,101.5 L193.9,103.0 L194.6,104.5 L195.3,106.0 L196.0,107.5 L196.7,109.0 L197.4,110.4 L198.1,111.8 L198.8,113.3 L199.5,114.6 L200.2,116.0 L200.9,117.3 L201.6,118.6 L202.3,119.9 L203.0,121.2 L203.7,122.4 L204.4,123.5 L205.1,124.6 L205.8,125.7 L206.5,126.8 L207.2,127.7 L207.9,128.7 L208.6,129.6 L209.3,130.4 L210.0,131.2 L210.7,131.9 L211.4,132.6 L212.1,133.2 L212.8,133.7 L213.5,134.2 L214.2,134.7 L214.9,135.0 L215.6,135.4 L216.3,135.6 L217.0,135.8 L217.7,135.9 L218.4,136.0 L219.1,136.0 L219.8,135.9 L220.5,135.8 L221.2,135.6 L221.9,135.4 L222.6,135.0 L223.3,134.7 L224.0,134.2 L224.7,133.7 L225.4,133.2 L226.1,132.6 L226.8,131.9 L227.5,131.2 L228.2,130.4 L228.9,129.6 L229.6,128.7 L230.3,127.7 L231.0,126.8 L231.7,125.7 L232.4,124.6 L233.1,123.5 L233.8,122.4 L234.5,121.2 L235.2,119.9 L235.9,118.6 L236.6,117.3 L237.3,116.0 L238.0,114.6 L238.7,113.3 L239.4,111.8 L240.1,110.4 L240.8,109.0 L241.5,107.5 L242.2,106.0 L242.9,104.5 L243.6,103.0 L244.3,101.5 L245.0,100.0" fill="none" stroke="#000" stroke-width="1.5"/>
<path d="M345.0,100.0 L555.0,100.0" fill="none" stroke="#000" stroke-width="0.75"/>
<path d="M345.0,100.0 L345.4,92.5 L345.7,85.4 L346.1,78.8 L346.4,73.2 L346.8,68.8 L347.1,65.8 L347.4,64.2 L347.8,64.2 L348.1,65.8 L348.5,68.8 L348.9,73.2 L349.2,78.8 L349.6,85.4 L349.9,92.5 L350.2,100.0 L350.6,107.5 L350.9,114.6 L351.3,121.2 L351.6,126.8 L352.0,131.2 L352.4,134.2 L352.7,135.8 L353.1,135.8 L353.4,134.2 L353.8,131.2 L354.1,126.8 L354.4,121.2 L354.8,114.6 L355.1,107.5 L355.5,100.0 L355.9,92.5 L356.2,85.4 L356.6,78.8 L356.9,73.2 L357.2,68.8 L357.6,65.8 L357.9,64.2 L358.3,64.2 L358.6,65.8 L359.0,68.8 L359.4,73.2 L359.7,78.8 L360.1,85.4 L360.4,92.5 L360.8,100.0 L361.1,107.5 L361.4,114.6 L361.8,121.2 L362.1,126.8 L362.5,131.2 L362.9,134.2 L363.2,135.8 L363.6,135.8 L363.9,134.2 L364.2,131.2 L364.6,126.8 L364.9,121.2 L365.3,114.6 L365.6,107.5 L366.0,100.0 L366.4,92.5 L366.7,85.4 L367.1,78.8 L367.4,73.2 L367.8,68.8 L368.1,65.8 L368.4,64.2 L368.8,64.2 L369.1,65.8 L369.5,68.8 L369.9,73.2 L370.2,78.8 L370.6,85.4 L370.9,92.5 L371.2,100.0 L371.6,107.5 L371.9,114.6 L372.3,121.2 L372.6,126.8 L373.0,131.2 L373.4,134.2 L373.7,135.8 L374.1,135.8 L374.4,134.2 L374.8,131.2 L375.1,126.8 L375.4,121.2 L375.8,114.6 L376.1,107.5 L376.5,100.0 L376.9,92.5 L377.2,85.4 L377.6,78.8 L377.9,73.2 L378.2,68.8 L378.6,65.8 L378.9,64.2 L379.3,64.2 L379.6,65.8 L380.0,68.8 L380.4,73.2 L380.7,78.8 L381.1,85.4 L381.4,92.5 L381.8,100.0 L382.1,107.5 L382.4,114.6 L382.8,121.2 L383.1,126.8 L383.5,131.2 L383.9,134.2 L384.2,135.8 L384.6,135.8 L384.9,134.2 L385.2,131.2 L385.6,126.8 L385.9,121.2 L386.3,114.6 L386.6,107.5 L387.0,100.0 L387.4,92.5 L387.7,85.4 L388.1,78.8 L388.4,73.2 L388.8,68.8 L389.1,65.8 L389.4,64.2 L389.8,64.2 L390.1,65.8 L390.5,68.8 L390.9,73.2 L391.2,78.8 L391.6,85.4 L391.9,92.5 L392.2,100.0 L392.6,107.5 L392.9,114.6 L393.3,121.2 L393.6,126.8 L394.0,131.2 L394.4,134.2 L394.7,135.8 L395.1,135.8 L395.4,134.2 L395.8,131.2 L396.1,126.8 L396.4,121.2 L396.8,114.6 L397.1,107.5 L397.5,100.0 L397.9,92.5 L398.2,85.4 L398.6,78.8 L398.9,73.2 L399.2,68.8 L399.6,65.8 L399.9,64.2 L400.3,64.2 L400.6,65.8 L401.0,68.8 L401.4,73.2 L401.7,78.8 L402.1,85.4 L402.4,92.5 L402.8,100.0 L403.1,107.5 L403.4,114.6 L403.8,121.2 L404.1,126.8 L404.5,131.2 L404.9,134.2 L405.2,135.8 L405.6,135.8 L405.9,134.2 L406.2,131.2 L406.6,126.8 L406.9,121.2 L407.3,114.6 L407.6,107.5 L408.0,100.0 L408.4,92.5 L408.7,85.4 L409.1,78.8 L409.4,73.2 L409.8,68.8 L410.1,65.8 L410.4,64.2 L410.8,64.2 L411.1,65.8 L411.5,68.8 L411.9,73.2 L412.2,78.8 L412.6,85.4 L412.9,92.5 L413.2,100.0 L413.6,107.5 L413.9,114.6 L414.3,121.2 L414.6,126.8 L415.0,131.2 L415.4,134.2 L415.7,135.8 L416.1,135.8 L416.4,134.2 L416.8,131.2 L417.1,126.8 L417.4,121.2 L417.8,114.6 L418.1,107.5 L418.5,100.0 L418.9,92.5 L419.2,85.4 L419.6,78.8 L419.9,73.2 L420.2,68.8 L420.6,65.8 L420.9,64.2 L421.3,64.2 L421.6,65.8 L422.0,68.8 L422.4,73.2 L422.7,78.8 L423.1,85.4 L423.4,92.5 L423.8,100.0 L424.1,107.5 L424.4,114.6 L424.8,121.2 L425.1,126.8 L425.5,131.2 L425.9,134.2 L426.2,135.8 L426.6,135.8 L426.9,134.2 L427.2,131.2 L427.6,126.8 L427.9,121.2 L428.3,114.6 L428.6,107.5 L429.0,100.0 L429.4,92.5 L429.7,85.4 L430.1,78.8 L430.4,73.2 L430.8,68.8 L431.1,65.8 L431.4,64.2 L431.8,64.2 L432.1,65.8 L432.5,68.8 L432.9,73.2 L433.2,78.8 L433.6,85.4 L433.9,92.5 L434.2,100.0 L434.6,107.5 L434.9,114.6 L435.3,121.2 L435.6,126.8 L436.0,131.2 L436.4,134.2 L436.7,135.8 L437.1,135.8 L437.4,134.2 L437.8,131.2 L438.1,126.8 L438.4,121.2 L438.8,114.6 L439.1,107.5 L439.5,100.0 L439.9,92.5 L440.2,85.4 L440.6,78.8 L440.9,73.2 L441.2,68.8 L441.6,65.8 L441.9,64.2 L442.3,64.2 L442.6,65.8 L443.0,68.8 L443.4,73.2 L443.7,78.8 L444.1,85.4 L444.4,92.5 L444.8,100.0 L445.1,107.5 L445.4,114.6 L445.8,121.2 L446.1,126.8 L446.5,131.2 L446.9,134.2 L447.2,135.8 L447.6,135.8 L447.9,134.2 L448.2,131.2 L448.6,126.8 L448.9,121.2 L449.3,114.6 L449.6,107.5 L450.0,100.0 L450.4,92.5 L450.7,85.4 L451.1,78.8 L451.4,73.2 L451.8,68.8 L452.1,65.8 L452.4,64.2 L452.8,64.2 L453.1,65.8 L453.5,68.8 L453.9,73.2 L454.2,78.8 L454.6,85.4 L454.9,92.5 L455.2,100.0 L455.6,107.5 L455.9,114.6 L456.3,121.2 L456.6,126.8 L457.0,131.2 L457.4,134.2 L457.7,135.8 L458.1,135.8 L458.4,134.2 L458.8,131.2 L459.1,126.8 L459.4,121.2 L459.8,114.6 L460.1,107.5 L460.5,100.0 L460.9,92.5 L461.2,85.4 L461.6,78.8 L461.9,73.2 L462.2,68.8 L462.6,65.8 L462.9,64.2 L463.3,64.2 L463.6,65.8 L464.0,68.8 L464.4,73.2 L464.7,78.8 L465.1,85.4 L465.4,92.5 L465.8,100.0 L466.1,107.5 L466.4,114.6 L466.8,121.2 L467.1,126.8 L467.5,131.2 L467.9,134.2 L468.2,135.8 L468.6,135.8 L468.9,134.2 L469.2,131.2 L469.6,126.8 L469.9,121.2 L470.3,114.6 L470.6,107.5 L471.0,100.0 L471.4,92.5 L471.7,85.4 L472.1,78.8 L472.4,73.2 L472.8,68.8 L473.1,65.8 L473.4,64.2 L473.8,64.2 L474.1,65.8 L474.5,68.8 L474.9,73.2 L475.2,78.8 L475.6,85.4 L475.9,92.5 L476.2,100.0 L476.6,107.5 L476.9,114.6 L477.3,121.2 L477.6,126.8 L478.0,131.2 L478.4,134.2 L478.7,135.8 L479.1,135.8 L479.4,134.2 L479.8,131.2 L480.1,126.8 L480.4,121.2 L480.8,114.6 L481.1,107.5 L481.5,100.0 L481.9,92.5 L482.2,85.4 L482.6,78.8 L482.9,73.2 L483.2,68.8 L483.6,65.8 L483.9,64.2 L484.3,64.2 L484.6,65.8 L485.0,68.8 L485.4,73.2 L485.7,78.8 L486.1,85.4 L486.4,92.5 L486.8,100.0 L487.1,107.5 L487.4,114.6 L487.8,121.2 L488.1,126.8 L488.5,131.2 L488.9,134.2 L489.2,135.8 L489.6,135.8 L489.9,134.2 L490.2,131.2 L490.6,126.8 L490.9,121.2 L491.3,114.6 L491.6,107.5 L492.0,100.0 L492.4,92.5 L492.7,85.4 L493.1,78.8 L493.4,73.2 L493.8,68.8 L494.1,65.8 L494.4,64.2 L494.8,64.2 L495.1,65.8 L495.5,68.8 L495.9,73.2 L496.2,78.8 L496.6,85.4 L496.9,92.5 L497.2,100.0 L497.6,107.5 L497.9,114.6 L498.3,121.2 L498.6,126.8 L499.0,131.2 L499.4,134.2 L499.7,135.8 L500.1,135.8 L500.4,134.2 L500.8,131.2 L501.1,126.8 L501.4,121.2 L501.8,114.6 L502.1,107.5 L502.5,100.0 L502.9,92.5 L503.2,85.4 L503.6,78.8 L503.9,73.2 L504.2,68.8 L504.6,65.8 L504.9,64.2 L505.3,64.2 L505.6,65.8 L506.0,68.8 L506.4,73.2 L506.7,78.8 L507.1,85.4 L507.4,92.5 L507.8,100.0 L508.1,107.5 L508.4,114.6 L508.8,121.2 L509.1,126.8 L509.5,131.2 L509.9,134.2 L510.2,135.8 L510.6,135.8 L510.9,134.2 L511.2,131.2 L511.6,126.8 L511.9,121.2 L512.3,114.6 L512.6,107.5 L513.0,100.0 L513.4,92.5 L513.7,85.4 L514.0,78.8 L514.4,73.2 L514.8,68.8 L515.1,65.8 L515.5,64.2 L515.8,64.2 L516.1,65.8 L516.5,68.8 L516.9,73.2 L517.2,78.8 L517.5,85.4 L517.9,92.5 L518.2,100.0 L518.6,107.5 L519.0,114.6 L519.3,121.2 L519.6,126.8 L520.0,131.2 L520.4,134.2 L520.7,135.8 L521.0,135.8 L521.4,134.2 L521.8,131.2 L522.1,126.8 L522.5,121.2 L522.8,114.6 L523.1,107.5 L523.5,100.0 L523.9,92.5 L524.2,85.4 L524.5,78.8 L524.9,73.2 L525.2,68.8 L525.6,65.8 L526.0,64.2 L526.3,64.2 L526.6,65.8 L527.0,68.8 L527.4,73.2 L527.7,78.8 L528.0,85.4 L528.4,92.5 L528.8,100.0 L529.1,107.5 L529.5,114.6 L529.8,121.2 L530.1,126.8 L530.5,131.2 L530.9,134.2 L531.2,135.8 L531.5,135.8 L531.9,134.2 L532.2,131.2 L532.6,126.8 L533.0,121.2 L533.3,114.6 L533.6,107.5 L534.0,100.0 L534.4,92.5 L534.7,85.4 L535.0,78.8 L535.4,73.2 L535.8,68.8 L536.1,65.8 L536.5,64.2 L536.8,64.2 L537.1,65.8 L537.5,68.8 L537.9,73.2 L538.2,78.8 L538.5,85.4 L538.9,92.5 L539.2,100.0 L539.6,107.5 L540.0,114.6 L540.3,121.2 L540.6,126.8 L541.0,131.2 L541.4,134.2 L541.7,135.8 L542.0,135.8 L542.4,134.2 L542.8,131.2 L543.1,126.8 L543.5,121.2 L543.8,114.6 L544.1,107.5 L544.5,100.0 L544.9,92.5 L545.2,85.4 L545.5,78.8 L545.9,73.2 L546.2,68.8 L546.6,65.8 L547.0,64.2 L547.3,64.2 L547.6,65.8 L548.0,68.8 L548.4,73.2 L548.7,78.8 L549.0,85.4 L549.4,92.5 L549.8,100.0 L550.1,107.5 L550.5,114.6 L550.8,121.2 L551.1,126.8 L551.5,131.2 L551.9,134.2 L552.2,135.8 L552.5,135.8 L552.9,134.2 L553.2,131.2 L553.6,126.8 L554.0,121.2 L554.3,114.6 L554.6,107.5 L555.0,100.0" fill="none" stroke="#000" stroke-width="1.5"/>
<path d="M655.0,100.0 L865.0,100.0" fill="none" stroke="#000" stroke-width="0.75"/>
<path d="M655.0,100.0 L655.4,95.5 L655.7,91.1 L656.0,87.0 L656.4,83.3 L656.8,80.3 L657.1,78.1 L657.5,76.8 L657.8,76.5 L658.1,77.2 L658.5,79.0 L658.9,81.7 L659.2,85.4 L659.5,89.8 L659.9,94.7 L660.2,100.0 L660.6,105.4 L661.0,110.7 L661.3,115.7 L661.6,120.0 L662.0,123.6 L662.4,126.1 L662.7,127.6 L663.0,127.9 L663.4,126.9 L663.8,124.8 L664.1,121.4 L664.5,117.1 L664.8,111.9 L665.1,106.2 L665.5,100.0 L665.9,93.7 L666.2,87.6 L666.5,82.0 L666.9,77.1 L667.2,73.1 L667.6,70.2 L668.0,68.6 L668.3,68.4 L668.6,69.6 L669.0,72.1 L669.4,75.9 L669.7,80.8 L670.0,86.7 L670.4,93.1 L670.8,100.0 L671.1,106.9 L671.5,113.6 L671.8,119.8 L672.1,125.2 L672.5,129.5 L672.9,132.5 L673.2,134.1 L673.5,134.3 L673.9,132.9 L674.2,130.1 L674.6,125.9 L675.0,120.5 L675.3,114.3 L675.6,107.3 L676.0,100.0 L676.4,92.6 L676.7,85.6 L677.0,79.1 L677.4,73.5 L677.8,69.1 L678.1,66.0 L678.5,64.4 L678.8,64.4 L679.1,65.9 L679.5,68.9 L679.9,73.3 L680.2,78.9 L680.5,85.4 L680.9,92.5 L681.2,100.0 L681.6,107.5 L682.0,114.6 L682.3,121.1 L682.6,126.7 L683.0,131.1 L683.4,134.1 L683.7,135.6 L684.0,135.6 L684.4,134.0 L684.8,130.9 L685.1,126.5 L685.5,120.9 L685.8,114.4 L686.1,107.4 L686.5,100.0 L686.9,92.7 L687.2,85.7 L687.5,79.5 L687.9,74.1 L688.2,69.9 L688.6,67.1 L689.0,65.7 L689.3,65.9 L689.6,67.5 L690.0,70.5 L690.4,74.8 L690.7,80.2 L691.0,86.4 L691.4,93.1 L691.8,100.0 L692.1,106.9 L692.5,113.3 L692.8,119.2 L693.1,124.1 L693.5,127.9 L693.9,130.4 L694.2,131.6 L694.5,131.4 L694.9,129.8 L695.2,126.9 L695.6,122.9 L696.0,118.0 L696.3,112.4 L696.6,106.3 L697.0,100.0 L697.4,93.8 L697.7,88.1 L698.0,82.9 L698.4,78.6 L698.8,75.2 L699.1,73.1 L699.5,72.1 L699.8,72.4 L700.1,73.9 L700.5,76.4 L700.9,80.0 L701.2,84.3 L701.5,89.3 L701.9,94.6 L702.2,100.0 L702.6,105.3 L703.0,110.2 L703.3,114.6 L703.6,118.3 L704.0,121.0 L704.4,122.8 L704.7,123.5 L705.0,123.2 L705.4,121.9 L705.8,119.7 L706.1,116.7 L706.5,113.0 L706.8,108.9 L707.1,104.5 L707.5,100.0 L707.9,95.7 L708.2,91.6 L708.5,88.1 L708.9,85.2 L709.2,83.0 L709.6,81.6 L710.0,81.1 L710.3,81.4 L710.6,82.5 L711.0,84.3 L711.4,86.8 L711.7,89.7 L712.0,93.0 L712.4,96.5 L712.8,100.0 L713.1,103.4 L713.5,106.5 L713.8,109.2 L714.1,111.5 L714.5,113.1 L714.9,114.1 L715.2,114.5 L715.5,114.2 L715.9,113.3 L716.2,111.9 L716.6,110.0 L717.0,107.8 L717.3,105.3 L717.6,102.6 L718.0,100.0 L718.4,97.5 L718.7,95.1 L719.0,93.1 L719.4,91.5 L719.8,90.3 L720.1,89.5 L720.5,89.3 L720.8,89.5 L721.1,90.1 L721.5,91.2 L721.9,92.6 L722.2,94.3 L722.5,96.1 L722.9,98.1 L723.2,100.0 L723.6,101.9 L724.0,103.6 L724.3,105.1 L724.6,106.3 L725.0,107.2 L725.4,107.8 L725.7,108.0 L726.0,107.9 L726.4,107.4 L726.8,106.6 L727.1,105.6 L727.5,104.3 L727.8,103.0 L728.1,101.5 L728.5,100.0 L728.9,98.5 L729.2,97.2 L729.5,96.0 L729.9,95.0 L730.2,94.2 L730.6,93.7 L731.0,93.5 L731.3,93.5 L731.6,93.8 L732.0,94.4 L732.4,95.2 L732.7,96.2 L733.0,97.4 L733.4,98.7 L733.8,100.0 L734.1,101.3 L734.5,102.6 L734.8,103.8 L735.1,104.8 L735.5,105.6 L735.9,106.2 L736.2,106.5 L736.5,106.5 L736.9,106.3 L737.2,105.8 L737.6,105.0 L738.0,104.0 L738.3,102.8 L738.6,101.5 L739.0,100.0 L739.4,98.5 L739.7,97.0 L740.0,95.7 L740.4,94.4 L740.8,93.4 L741.1,92.6 L741.5,92.1 L741.8,92.0 L742.1,92.2 L742.5,92.8 L742.9,93.7 L743.2,94.9 L743.5,96.4 L743.9,98.1 L744.2,100.0 L744.6,101.9 L745.0,103.9 L745.3,105.7 L745.6,107.4 L746.0,108.8 L746.4,109.9 L746.7,110.5 L747.0,110.7 L747.4,110.5 L747.8,109.7 L748.1,108.5 L748.5,106.9 L748.8,104.9 L749.1,102.5 L749.5,100.0 L749.9,97.4 L750.2,94.7 L750.5,92.2 L750.9,90.0 L751.2,88.1 L751.6,86.7 L752.0,85.8 L752.3,85.5 L752.6,85.9 L753.0,86.9 L753.4,88.5 L753.7,90.8 L754.0,93.5 L754.4,96.6 L754.8,100.0 L755.1,103.5 L755.5,107.0 L755.8,110.3 L756.1,113.2 L756.5,115.7 L756.9,117.5 L757.2,118.6 L757.5,118.9 L757.9,118.4 L758.2,117.0 L758.6,114.8 L759.0,111.9 L759.3,108.4 L759.6,104.3 L760.0,100.0 L760.4,95.5 L760.7,91.1 L761.0,87.0 L761.4,83.3 L761.8,80.3 L762.1,78.1 L762.5,76.8 L762.8,76.5 L763.1,77.2 L763.5,79.0 L763.9,81.7 L764.2,85.4 L764.5,89.8 L764.9,94.7 L765.2,100.0 L765.6,105.4 L766.0,110.7 L766.3,115.7 L766.6,120.0 L767.0,123.6 L767.4,126.1 L767.7,127.6 L768.0,127.9 L768.4,126.9 L768.8,124.8 L769.1,121.4 L769.5,117.1 L769.8,111.9 L770.1,106.2 L770.5,100.0 L770.9,93.7 L771.2,87.6 L771.5,82.0 L771.9,77.1 L772.2,73.1 L772.6,70.2 L773.0,68.6 L773.3,68.4 L773.6,69.6 L774.0,72.1 L774.4,75.9 L774.7,80.8 L775.0,86.7 L775.4,93.1 L775.8,100.0 L776.1,106.9 L776.5,113.6 L776.8,119.8 L777.1,125.2 L777.5,129.5 L777.9,132.5 L778.2,134.1 L778.5,134.3 L778.9,132.9 L779.2,130.1 L779.6,125.9 L780.0,120.5 L780.3,114.3 L780.6,107.3 L781.0,100.0 L781.4,92.6 L781.7,85.6 L782.0,79.1 L782.4,73.5 L782.8,69.1 L783.1,66.0 L783.5,64.4 L783.8,64.4 L784.1,65.9 L784.5,68.9 L784.9,73.3 L785.2,78.9 L785.5,85.4 L785.9,92.5 L786.2,100.0 L786.6,107.5 L787.0,114.6 L787.3,121.1 L787.6,126.7 L788.0,131.1 L788.4,134.1 L788.7,135.6 L789.0,135.6 L789.4,134.0 L789.8,130.9 L790.1,126.5 L790.5,120.9 L790.8,114.4 L791.1,107.4 L791.5,100.0 L791.9,92.7 L792.2,85.7 L792.5,79.5 L792.9,74.1 L793.2,69.9 L793.6,67.1 L794.0,65.7 L794.3,65.9 L794.6,67.5 L795.0,70.5 L795.4,74.8 L795.7,80.2 L796.0,86.4 L796.4,93.1 L796.8,100.0 L797.1,106.9 L797.5,113.3 L797.8,119.2 L798.1,124.1 L798.5,127.9 L798.9,130.4 L799.2,131.6 L799.5,131.4 L799.9,129.8 L800.2,126.9 L800.6,122.9 L801.0,118.0 L801.3,112.4 L801.6,106.3 L802.0,100.0 L802.4,93.8 L802.7,88.1 L803.0,82.9 L803.4,78.6 L803.8,75.2 L804.1,73.1 L804.5,72.1 L804.8,72.4 L805.1,73.9 L805.5,76.4 L805.9,80.0 L806.2,84.3 L806.5,89.3 L806.9,94.6 L807.2,100.0 L807.6,105.3 L808.0,110.2 L808.3,114.6 L808.6,118.3 L809.0,121.0 L809.4,122.8 L809.7,123.5 L810.0,123.2 L810.4,121.9 L810.8,119.7 L811.1,116.7 L811.5,113.0 L811.8,108.9 L812.1,104.5 L812.5,100.0 L812.9,95.7 L813.2,91.6 L813.5,88.1 L813.9,85.2 L814.2,83.0 L814.6,81.6 L815.0,81.1 L815.3,81.4 L815.6,82.5 L816.0,84.3 L816.4,86.8 L816.7,89.7 L817.0,93.0 L817.4,96.5 L817.8,100.0 L818.1,103.4 L818.5,106.5 L818.8,109.2 L819.1,111.5 L819.5,113.1 L819.9,114.1 L820.2,114.5 L820.5,114.2 L820.9,113.3 L821.2,111.9 L821.6,110.0 L822.0,107.8 L822.3,105.3 L822.6,102.6 L823.0,100.0 L823.4,97.5 L823.7,95.1 L824.0,93.1 L824.4,91.5 L824.8,90.3 L825.1,89.5 L825.5,89.3 L825.8,89.5 L826.1,90.1 L826.5,91.2 L826.9,92.6 L827.2,94.3 L827.5,96.1 L827.9,98.1 L828.2,100.0 L828.6,101.9 L829.0,103.6 L829.3,105.1 L829.6,106.3 L830.0,107.2 L830.4,107.8 L830.7,108.0 L831.0,107.9 L831.4,107.4 L831.8,106.6 L832.1,105.6 L832.5,104.3 L832.8,103.0 L833.1,101.5 L833.5,100.0 L833.9,98.5 L834.2,97.2 L834.5,96.0 L834.9,95.0 L835.2,94.2 L835.6,93.7 L836.0,93.5 L836.3,93.5 L836.6,93.8 L837.0,94.4 L837.4,95.2 L837.7,96.2 L838.0,97.4 L838.4,98.7 L838.8,100.0 L839.1,101.3 L839.5,102.6 L839.8,103.8 L840.1,104.8 L840.5,105.6 L840.9,106.2 L841.2,106.5 L841.5,106.5 L841.9,106.3 L842.2,105.8 L842.6,105.0 L843.0,104.0 L843.3,102.8 L843.6,101.5 L844.0,100.0 L844.4,98.5 L844.7,97.0 L845.0,95.7 L845.4,94.4 L845.8,93.4 L846.1,92.6 L846.5,92.1 L846.8,92.0 L847.1,92.2 L847.5,92.8 L847.9,93.7 L848.2,94.9 L848.5,96.4 L848.9,98.1 L849.2,100.0 L849.6,101.9 L850.0,103.9 L850.3,105.7 L850.6,107.4 L851.0,108.8 L851.4,109.9 L851.7,110.5 L852.0,110.7 L852.4,110.5 L852.8,109.7 L853.1,108.5 L853.5,106.9 L853.8,104.9 L854.1,102.5 L854.5,100.0 L854.9,97.4 L855.2,94.7 L855.5,92.2 L855.9,90.0 L856.2,88.1 L856.6,86.7 L857.0,85.8 L857.3,85.5 L857.6,85.9 L858.0,86.9 L858.4,88.5 L858.7,90.8 L859.0,93.5 L859.4,96.6 L859.8,100.0 L860.1,103.5 L860.5,107.0 L860.8,110.3 L861.1,113.2 L861.5,115.7 L861.9,117.5 L862.2,118.6 L862.5,118.9 L862.9,118.4 L863.2,117.0 L863.6,114.8 L864.0,111.9 L864.3,108.4 L864.6,104.3 L865.0,100.0" fill="none" stroke="#000" stroke-width="1.5"/>
<text x="295" y="110.5" text-anchor="middle" font-family="Arial, Helvetica, sans-serif" font-size="30" font-weight="bold" fill="#000">+</text>
<path d="M585.0,100.0 L625.0,100.0" fill="none" stroke="#000" stroke-width="1.5" marker-end="url(#a)"/>
<text x="605" y="88.2" text-anchor="middle" font-family="Arial, Helvetica, sans-serif" font-size="12" fill="#000">modulate</text>
</svg>
