<svg xmlns="http://www.w3.org/2000/svg" width="900" height="400" viewBox="0 0 900 400" role="img" aria-labelledby="t d" xmlns:c2pa="http://c2pa.org/manifest"><metadata><c2pa:manifest>AAAWgmp1bWIAAAAeanVtZGMycGEAEQAQgAAAqgA4m3EDYzJwYQAAABZcanVtYgAAAEdqdW1kYzJtYQARABCAAACqADibcQN1cm46YzJwYTpiNTgzYWM3OS01NTIzLTQwYTgtYjg5Ni0zZDRlNTkxOWVkNDcAAAADl2p1bWIAAAApanVtZGMyYXMAEQAQgAAAqgA4m3EDYzJwYS5hc3NlcnRpb25zAAAAALxqdW1iAAAARGp1bWRjYm9yABEAEIAAAKoAOJtxE2MycGEuaW5ncmVkaWVudC52MwAAAAAYYzJzaOuT4oMag8qrlLBSe8jiHBwAAABwY2JvcqNpZGM6Zm9ybWF0bWltYWdlL3N2Zyt4bWxqaW5zdGFuY2VJRHgseG1wOmlpZDo4NDVkNWNiZi1jNjk0LTRkMDMtOWE2MS1lYTFlM2FiYmZjZDhscmVsYXRpb25zaGlwaHBhcmVudE9mAAAB4mp1bWIAAABBanVtZGNib3IAEQAQgAAAqgA4m3ETYzJwYS5hY3Rpb25zLnYyAAAAABhjMnNoo3QwO7/3FV07/l3dJEANMwAAAZljYm9yomdhY3Rpb25zgqJmYWN0aW9ua2MycGEub3BlbmVkanBhcmFtZXRlcnOha2luZ3JlZGllbnRzgaJjdXJseC1zZWxmI2p1bWJmPWMycGEuYXNzZXJ0aW9ucy9jMnBhLmluZ3JlZGllbnQudjNkaGFzaFggJazJx6GW7pj2OlT6p2XwGTv+rtLC2gM6yKJ5d4s3dz2kZmFjdGlvbngdY29tLmFudGhyb3BpYy5jbGF1ZGUucHJvdmlkZWRqcGFyYW1ldGVyc6F4H2NvbS5hbnRocm9waWMub3JpZ2luLWNvbmZpZGVuY2VndW5rbm93bmtkZXNjcmlwdGlvbnhmQ2xhdWRlIHByb3ZpZGVkIHRoaXMgZmlsZSBhdCB0aGUgcmVxdWVzdCBvZiBhIHVzZXIgYW5kIG1heSBoYXZlIGNyZWF0ZWQgb3IgbW9kaWZpZWQgdGhlIGZpbGUgY29udGVudHMubXNvZnR3YXJlQWdlbnShZG5hbWVmQ2xhdWRlcmFsbEFjdGlvbnNJbmNsdWRlZPUAAADIanVtYgAAAEBqdW1kY2JvcgARABCAAACqADibcRNjMnBhLmhhc2guZGF0YQAAAAAYYzJzaFLjjcYVeDUR+y8SMtUzOSMAAACAY2JvcqVjYWxnZnNoYTI1NmNwYWRNAAAAAAAAAAAAAAAAAGRoYXNoWCBaqz/2oAlhWh7+C4KSvq0d7bITsUOqgP6Fr2w7ruYesmRuYW1lbmp1bWJmIG1hbmlmZXN0amV4Y2x1c2lvbnOBomVzdGFydBi3Zmxlbmd0aBkeBAAAAj5qdW1iAAAAJ2p1bWRjMmNsABEAEIAAAKoAOJtxA2MycGEuY2xhaW0udjIAAAACD2Nib3KlY2FsZ2ZzaGEyNTZpc2lnbmF0dXJleE1zZWxmI2p1bWJmPS9jMnBhL3VybjpjMnBhOmI1ODNhYzc5LTU1MjMtNDBhOC1iODk2LTNkNGU1OTE5ZWQ0Ny9jMnBhLnNpZ25hdHVyZWppbnN0YW5jZUlEeCx4bXA6aWlkOjJiN2VjOTMwLWZjMzItNGZmOS05NWJkLTExZDcxZjZhNzc5MXJjcmVhdGVkX2Fzc2VydGlvbnODomN1cmx4LXNlbGYjanVtYmY9YzJwYS5hc3NlcnRpb25zL2MycGEuaW5ncmVkaWVudC52M2RoYXNoWCAlrMnHoZbumPY6VPqnZfAZO/6u0sLaAzrIonl3izd3PaJjdXJseCpzZWxmI2p1bWJmPWMycGEuYXNzZXJ0aW9ucy9jMnBhLmFjdGlvbnMudjJkaGFzaFggcq+5b0pqwtWRyQq0efo7qGBGCPDY0etWXPD8Xx9jx/WiY3VybHgpc2VsZiNqdW1iZj1jMnBhLmFzc2VydGlvbnMvYzJwYS5oYXNoLmRhdGFkaGFzaFggeXPB+BVuIGRkNj+EIVI+YN3IhY8wD1vxwrmibRuyYlF0Y2xhaW1fZ2VuZXJhdG9yX2luZm+jZG5hbWVvQW50aHJvcGljIEZpbGVzZ3ZlcnNpb25lMS4wLjBrc3BlY1ZlcnNpb25lMi40LjAAABA4anVtYgAAAChqdW1kYzJjcwARABCAAACqADibcQNjMnBhLnNpZ25hdHVyZQAAABAIY2JvctKEWQISogEmGCFZAgowggIGMIIBjaADAgECAhRA5aAK7sI50L64g/oGQgU9Z1UTADAKBggqhkjOPQQDAzBJMRcwFQYDVQQKEw5BbnRocm9waWMsIFBCQzEuMCwGA1UEAxMlQW50aHJvcGljIENvbnRlbnQgQ3JlZGVudGlhbHMgUm9vdCBDQTAeFw0yNjA4MDcxODQzNTZaFw0yODA4MDYxOTQzNTZaMEQxFzAVBgNVBAoTDkFudGhyb3BpYywgUEJDMSkwJwYDVQQDEyBBbnRocm9waWMgQ2xhdWRlIENvbnRlbnQgU2lnbmluZzBZMBMGByqGSM49AgEGCCqGSM49AwEHA0IABJh6CmvLUBgFFNU0vUKlOVtE6djd17L5SuwX0LemFisBM3dkd/3cyjxFA3Qo5S46fX0/ihY0VZ7mfb9KF703t5OjWDBWMA4GA1UdDwEB/wQEAwIHgDAVBgNVHSUEDjAMBgorBgEEAYPoXgIBMAwGA1UdEwEB/wQCMAAwHwYDVR0jBBgwFoAUzlHiBIFOZFsj+OPEz5o+nMHXXMIwCgYIKoZIzj0EAwMDZwAwZAIwMXMdFJ4BetLLVY7ORuE9noqbbAZOZn/aArXyTwFAZfKrPzxF2vPoJNf1+UCdg1XGAjBwX1zd9WGqYkqmL5SFqw1QySjr1zJfpJM9+1rdDwSPLMOPOjKuiXjoU/pUUeG9RwmhY3BhZFkNngAAAAAAAAAAAAAAAAAAAAAAAAAAAAAAAAAAAAAAAAAAAAAAAAAAAAAAAAAAAAAAAAAAAAAAAAAAAAAAAAAAAAAAAAAAAAAAAAAAAAAAAAAAAAAAAAAAAAAAAAAAAAAAAAAAAAAAAAAAAAAAAAAAAAAAAAAAAAAAAAAAAAAAAAAAAAAAAAAAAAAAAAAAAAAAAAAAAAAAAAAAAAAAAAAAAAAAAAAAAAAAAAAAAAAAAAAAAAAAAAAAAAAAAAAAAAAAAAAAAAAAAAAAAAAAAAAAAAAAAAAAAAAAAAAAAAAAAAAAAAAAAAAAAAAAAAAAAAAAAAAAAAAAAAAAAAAAAAAAAAAAAAAAAAAAAAAAAAAAAAAAAAAAAAAAAAAAAAAAAAAAAAAAAAAAAAAAAAAAAAAAAAAAAAAAAAAAAAAAAAAAAAAAAAAAAAAAAAAAAAAAAAAAAAAAAAAAAAAAAAAAAAAAAAAAAAAAAAAAAAAAAAAAAAAAAAAAAAAAAAAAAAAAAAAAAAAAAAAAAAAAAAAAAAAAAAAAAAAAAAAAAAAAAAAAAAAAAAAAAAAAAAAAAAAAAAAAAAAAAAAAAAAAAAAAAAAAAAAAAAAAAAAAAAAAAAAAAAAAAAAAAAAAAAAAAAAAAAAAAAAAAAAAAAAAAAAAAAAAAAAAAAAAAAAAAAAAAAAAAAAAAAAAAAAAAAAAAAAAAAAAAAAAAAAAAAAAAAAAAAAAAAAAAAAAAAAAAAAAAAAAAAAAAAAAAAAAAAAAAAAAAAAAAAAAAAAAAAAAAAAAAAAAAAAAAAAAAAAAAAAAAAAAAAAAAAAAAAAAAAAAAAAAAAAAAAAAAAAAAAAAAAAAAAAAAAAAAAAAAAAAAAAAAAAAAAAAAAAAAAAAAAAAAAAAAAAAAAAAAAAAAAAAAAAAAAAAAAAAAAAAAAAAAAAAAAAAAAAAAAAAAAAAAAAAAAAAAAAAAAAAAAAAAAAAAAAAAAAAAAAAAAAAAAAAAAAAAAAAAAAAAAAAAAAAAAAAAAAAAAAAAAAAAAAAAAAAAAAAAAAAAAAAAAAAAAAAAAAAAAAAAAAAAAAAAAAAAAAAAAAAAAAAAAAAAAAAAAAAAAAAAAAAAAAAAAAAAAAAAAAAAAAAAAAAAAAAAAAAAAAAAAAAAAAAAAAAAAAAAAAAAAAAAAAAAAAAAAAAAAAAAAAAAAAAAAAAAAAAAAAAAAAAAAAAAAAAAAAAAAAAAAAAAAAAAAAAAAAAAAAAAAAAAAAAAAAAAAAAAAAAAAAAAAAAAAAAAAAAAAAAAAAAAAAAAAAAAAAAAAAAAAAAAAAAAAAAAAAAAAAAAAAAAAAAAAAAAAAAAAAAAAAAAAAAAAAAAAAAAAAAAAAAAAAAAAAAAAAAAAAAAAAAAAAAAAAAAAAAAAAAAAAAAAAAAAAAAAAAAAAAAAAAAAAAAAAAAAAAAAAAAAAAAAAAAAAAAAAAAAAAAAAAAAAAAAAAAAAAAAAAAAAAAAAAAAAAAAAAAAAAAAAAAAAAAAAAAAAAAAAAAAAAAAAAAAAAAAAAAAAAAAAAAAAAAAAAAAAAAAAAAAAAAAAAAAAAAAAAAAAAAAAAAAAAAAAAAAAAAAAAAAAAAAAAAAAAAAAAAAAAAAAAAAAAAAAAAAAAAAAAAAAAAAAAAAAAAAAAAAAAAAAAAAAAAAAAAAAAAAAAAAAAAAAAAAAAAAAAAAAAAAAAAAAAAAAAAAAAAAAAAAAAAAAAAAAAAAAAAAAAAAAAAAAAAAAAAAAAAAAAAAAAAAAAAAAAAAAAAAAAAAAAAAAAAAAAAAAAAAAAAAAAAAAAAAAAAAAAAAAAAAAAAAAAAAAAAAAAAAAAAAAAAAAAAAAAAAAAAAAAAAAAAAAAAAAAAAAAAAAAAAAAAAAAAAAAAAAAAAAAAAAAAAAAAAAAAAAAAAAAAAAAAAAAAAAAAAAAAAAAAAAAAAAAAAAAAAAAAAAAAAAAAAAAAAAAAAAAAAAAAAAAAAAAAAAAAAAAAAAAAAAAAAAAAAAAAAAAAAAAAAAAAAAAAAAAAAAAAAAAAAAAAAAAAAAAAAAAAAAAAAAAAAAAAAAAAAAAAAAAAAAAAAAAAAAAAAAAAAAAAAAAAAAAAAAAAAAAAAAAAAAAAAAAAAAAAAAAAAAAAAAAAAAAAAAAAAAAAAAAAAAAAAAAAAAAAAAAAAAAAAAAAAAAAAAAAAAAAAAAAAAAAAAAAAAAAAAAAAAAAAAAAAAAAAAAAAAAAAAAAAAAAAAAAAAAAAAAAAAAAAAAAAAAAAAAAAAAAAAAAAAAAAAAAAAAAAAAAAAAAAAAAAAAAAAAAAAAAAAAAAAAAAAAAAAAAAAAAAAAAAAAAAAAAAAAAAAAAAAAAAAAAAAAAAAAAAAAAAAAAAAAAAAAAAAAAAAAAAAAAAAAAAAAAAAAAAAAAAAAAAAAAAAAAAAAAAAAAAAAAAAAAAAAAAAAAAAAAAAAAAAAAAAAAAAAAAAAAAAAAAAAAAAAAAAAAAAAAAAAAAAAAAAAAAAAAAAAAAAAAAAAAAAAAAAAAAAAAAAAAAAAAAAAAAAAAAAAAAAAAAAAAAAAAAAAAAAAAAAAAAAAAAAAAAAAAAAAAAAAAAAAAAAAAAAAAAAAAAAAAAAAAAAAAAAAAAAAAAAAAAAAAAAAAAAAAAAAAAAAAAAAAAAAAAAAAAAAAAAAAAAAAAAAAAAAAAAAAAAAAAAAAAAAAAAAAAAAAAAAAAAAAAAAAAAAAAAAAAAAAAAAAAAAAAAAAAAAAAAAAAAAAAAAAAAAAAAAAAAAAAAAAAAAAAAAAAAAAAAAAAAAAAAAAAAAAAAAAAAAAAAAAAAAAAAAAAAAAAAAAAAAAAAAAAAAAAAAAAAAAAAAAAAAAAAAAAAAAAAAAAAAAAAAAAAAAAAAAAAAAAAAAAAAAAAAAAAAAAAAAAAAAAAAAAAAAAAAAAAAAAAAAAAAAAAAAAAAAAAAAAAAAAAAAAAAAAAAAAAAAAAAAAAAAAAAAAAAAAAAAAAAAAAAAAAAAAAAAAAAAAAAAAAAAAAAAAAAAAAAAAAAAAAAAAAAAAAAAAAAAAAAAAAAAAAAAAAAAAAAAAAAAAAAAAAAAAAAAAAAAAAAAAAAAAAAAAAAAAAAAAAAAAAAAAAAAAAAAAAAAAAAAAAAAAAAAAAAAAAAAAAAAAAAAAAAAAAAAAAAAAAAAAAAAAAAAAAAAAAAAAAAAAAAAAAAAAAAAAAAAAAAAAAAAAAAAAAAAAAAAAAAAAAAAAAAAAAAAAAAAAAAAAAAAAAAAAAAAAAAAAAAAAAAAAAAAAAAAAAAAAAAAAAAAAAAAAAAAAAAAAAAAAAAAAAAAAAAAAAAAAAAAAAAAAAAAAAAAAAAAAAAAAAAAAAAAAAAAAAAAAAAAAAAAAAAAAAAAAAAAAAAAAAAAAAAAAAAAAAAAAAAAAAAAAAAAAAAAAAAAAAAAAAAAAAAAAAAAAAAAAAAAAAAAAAAAAAAAAAAAAAAAAAAAAAAAAAAAAAAAAAAAAAAAAAAAAAAAAAAAAAAAAAAAAAAAAAAAAAAAAAAAAAAAAAAAAAAAAAAAAAAAAAAAAAAAAAAAAAAAAAAAAAAAAAAAAAAAAAAAAAAAAAAAAAAAAAAAAAAAAAAAAAAAAAAAAAAAAAAAAAAAAAAAAAAAAAAAAAAAAAAAAAAAAAAAAAAAAAAAAAAAAAAAAAAAAAAAAAAAAAAAAAAAAAAAAAAAAAAAAAAAAAAAAAAAAAAAAAAAAAAAAAAAAAAAAAAAAAAAAAAAAAAAAAAAAAAAAAAAAAAAAAAAAAAAAAAAAAAAAAAAAAAAAAAAAAAAAAAAAAAAAAAAAAAAAAAAAAAAAAAAAAAAAAAAAAAAAAAAAAAAAAAAAAAAAAAAAAAAAAAAAAAAAAAAAAAAAAAAAAAAAAAAAAAAAAAAAAAAAAAAAAAAAAAAAAAAAAAAAAAAAAAAAAAAAAAAAAAAAAAAAAAAAAAAAAAAAAAAAAAAAAAAAAAAAAAAAAAAAAAAAAAAAAAAAAAAAAAAAAAAAAAAAAAAAAAAAAAAAAAAAAAAAAAAAAAAAAAAAAAAAAAAAAAAAAAAAAAAAAAAAAAAAAAAAAAAAAAAAAAAAAAAAAAAAAAAAAAAAAAAAAAAAAAAAAAAAAAAAAAAAAAAAAAAAAAAAAAAAAAAAAAAAAAAAAAAAAAAAAAAAAAAAAAAAAAAAAAAAAAAAAAAAAAAAAAAAAAAAAAAAAAAAAAAAAAAAAAAAAAAAAAAAAAAAAAAAAAAAAAAAAAAAAAAAAAAAAAAAAAAAAAAAAAAAAAAAAAAAAAAAAAAAAAAAAAAAAAAAAAAAAAAAAAAAAAAAAAAAAAAAAAAAAAAAAAAAAAAAAAAAAAAAAAAAAAAAAAAAAAAAAAAAAAAAAAAAAAAAAAAAAAAAAAAAAAAAAAAAAAAAAAAAAAAAAAAAAAAAAAAAAAAAAAAAAAAAAAAAAAAAAAAAAAAAAAAAAAAAAAAAAAAAAAAAAAAAAAAAAAAAAAAAAAAAAAAAAAAAAAAAAAAAAAAAAAAAAAAAAAAAAAAAAAAAAAAAAAAAAAAAAAAAAAAAAAAAAAAAAAAAAAAAAAAAAAAAAAAAAAAAAAAAAAAAAAAAAAAAAAAAAAAAAAAAAAAAAAAAAAAPZYQP6veAUKaMuEeaPCsKSPBT05UMu/3RuLl8XnFbjeLhJJ6dyCVTmnsuSGx4/IOr+r+WmGWyF5nIBS2uDjMYRa1ZI=</c2pa:manifest></metadata>
<title id="t">AM demodulation waveforms</title>
<desc id="d">The AM wave, then only its top half after the diode, then the smooth outline after the capacitor and resistor, which is the message.</desc>
<defs><marker id="a" viewBox="0 0 10 10" refX="9" refY="5" markerWidth="8" markerHeight="8" orient="auto-start-reverse"><path d="M0,0 L10,5 L0,10 z" fill="#000"/></marker></defs>
<rect x="0" y="0" width="900" height="400" fill="#fff"/>
<text x="20" y="52.9" text-anchor="start" font-family="Arial, Helvetica, sans-serif" font-size="14" font-weight="bold" fill="#000">AM wave</text>
<text x="20" y="70.7" text-anchor="start" font-family="Arial, Helvetica, sans-serif" font-size="12" fill="#000">what the receiver</text>
<text x="20" y="87.7" text-anchor="start" font-family="Arial, Helvetica, sans-serif" font-size="12" fill="#000">picks up</text>
<text x="20" y="167.9" text-anchor="start" font-family="Arial, Helvetica, sans-serif" font-size="14" font-weight="bold" fill="#000">After diode</text>
<text x="20" y="185.7" text-anchor="start" font-family="Arial, Helvetica, sans-serif" font-size="12" fill="#000">only the top half</text>
<text x="20" y="202.7" text-anchor="start" font-family="Arial, Helvetica, sans-serif" font-size="12" fill="#000">passes</text>
<text x="20" y="302.9" text-anchor="start" font-family="Arial, Helvetica, sans-serif" font-size="14" font-weight="bold" fill="#000">After smoothing</text>
<text x="20" y="320.7" text-anchor="start" font-family="Arial, Helvetica, sans-serif" font-size="12" fill="#000">the outline = the</text>
<text x="20" y="337.7" text-anchor="start" font-family="Arial, Helvetica, sans-serif" font-size="12" fill="#000">original message</text>
<path d="M230.0,65.0 L880.0,65.0" fill="none" stroke="#000" stroke-width="0.75"/>
<path d="M230.0,65.0 L230.8,60.7 L231.6,56.4 L232.4,52.4 L233.2,48.6 L234.1,45.2 L234.9,42.3 L235.7,40.1 L236.5,38.6 L237.3,37.9 L238.1,37.9 L238.9,38.8 L239.8,40.5 L240.6,43.0 L241.4,46.2 L242.2,50.0 L243.0,54.3 L243.8,59.1 L244.6,64.1 L245.4,69.2 L246.2,74.3 L247.1,79.2 L247.9,83.7 L248.7,87.8 L249.5,91.2 L250.3,93.9 L251.1,95.8 L251.9,96.8 L252.8,96.8 L253.6,95.9 L254.4,94.0 L255.2,91.2 L256.0,87.6 L256.8,83.3 L257.6,78.3 L258.4,72.9 L259.2,67.1 L260.1,61.2 L260.9,55.4 L261.7,49.8 L262.5,44.5 L263.3,39.8 L264.1,35.8 L264.9,32.6 L265.8,30.4 L266.6,29.2 L267.4,29.0 L268.2,29.9 L269.0,31.9 L269.8,34.9 L270.6,38.9 L271.4,43.7 L272.2,49.1 L273.1,55.1 L273.9,61.5 L274.7,68.0 L275.5,74.5 L276.3,80.7 L277.1,86.6 L277.9,91.8 L278.8,96.3 L279.6,99.9 L280.4,102.5 L281.2,103.9 L282.0,104.2 L282.8,103.4 L283.6,101.3 L284.4,98.2 L285.2,94.1 L286.1,89.0 L286.9,83.2 L287.7,76.8 L288.5,70.1 L289.3,63.1 L290.1,56.1 L290.9,49.4 L291.8,43.1 L292.6,37.5 L293.4,32.6 L294.2,28.7 L295.0,25.9 L295.8,24.2 L296.6,23.7 L297.4,24.5 L298.2,26.5 L299.1,29.6 L299.9,33.8 L300.7,39.0 L301.5,44.9 L302.3,51.5 L303.1,58.5 L303.9,65.7 L304.8,72.8 L305.6,79.8 L306.4,86.3 L307.2,92.2 L308.0,97.3 L308.8,101.5 L309.6,104.5 L310.4,106.4 L311.2,107.0 L312.1,106.4 L312.9,104.5 L313.7,101.5 L314.5,97.3 L315.3,92.2 L316.1,86.3 L316.9,79.8 L317.8,72.8 L318.6,65.7 L319.4,58.5 L320.2,51.5 L321.0,44.9 L321.8,39.0 L322.6,33.8 L323.4,29.6 L324.2,26.5 L325.1,24.5 L325.9,23.7 L326.7,24.2 L327.5,25.9 L328.3,28.7 L329.1,32.6 L329.9,37.5 L330.8,43.1 L331.6,49.4 L332.4,56.1 L333.2,63.1 L334.0,70.1 L334.8,76.8 L335.6,83.2 L336.4,89.0 L337.2,94.1 L338.1,98.2 L338.9,101.3 L339.7,103.4 L340.5,104.2 L341.3,103.9 L342.1,102.5 L342.9,99.9 L343.8,96.3 L344.6,91.8 L345.4,86.6 L346.2,80.7 L347.0,74.5 L347.8,68.0 L348.6,61.5 L349.4,55.1 L350.2,49.1 L351.1,43.7 L351.9,38.9 L352.7,34.9 L353.5,31.9 L354.3,29.9 L355.1,29.0 L355.9,29.2 L356.8,30.4 L357.6,32.6 L358.4,35.8 L359.2,39.8 L360.0,44.5 L360.8,49.8 L361.6,55.4 L362.4,61.2 L363.2,67.1 L364.1,72.9 L364.9,78.3 L365.7,83.3 L366.5,87.6 L367.3,91.2 L368.1,94.0 L368.9,95.9 L369.8,96.8 L370.6,96.8 L371.4,95.8 L372.2,93.9 L373.0,91.2 L373.8,87.8 L374.6,83.7 L375.4,79.2 L376.2,74.3 L377.1,69.2 L377.9,64.1 L378.7,59.1 L379.5,54.3 L380.3,50.0 L381.1,46.2 L381.9,43.0 L382.8,40.5 L383.6,38.8 L384.4,37.9 L385.2,37.9 L386.0,38.6 L386.8,40.1 L387.6,42.3 L388.4,45.2 L389.2,48.6 L390.1,52.4 L390.9,56.4 L391.7,60.7 L392.5,65.0 L393.3,69.2 L394.1,73.2 L394.9,76.8 L395.8,80.1 L396.6,82.8 L397.4,84.9 L398.2,86.3 L399.0,87.1 L399.8,87.3 L400.6,86.7 L401.4,85.6 L402.2,83.8 L403.1,81.5 L403.9,78.8 L404.7,75.8 L405.5,72.5 L406.3,69.1 L407.1,65.6 L407.9,62.2 L408.8,59.0 L409.6,56.1 L410.4,53.4 L411.2,51.2 L412.0,49.5 L412.8,48.3 L413.6,47.6 L414.4,47.4 L415.2,47.8 L416.1,48.7 L416.9,50.0 L417.7,51.7 L418.5,53.8 L419.3,56.1 L420.1,58.7 L420.9,61.3 L421.8,64.0 L422.6,66.7 L423.4,69.2 L424.2,71.5 L425.0,73.5 L425.8,75.3 L426.6,76.7 L427.4,77.7 L428.2,78.3 L429.1,78.4 L429.9,78.2 L430.7,77.6 L431.5,76.6 L432.3,75.4 L433.1,73.8 L433.9,72.1 L434.8,70.2 L435.6,68.1 L436.4,66.1 L437.2,64.1 L438.0,62.2 L438.8,60.4 L439.6,58.8 L440.4,57.4 L441.2,56.3 L442.1,55.5 L442.9,55.0 L443.7,54.8 L444.5,54.9 L445.3,55.3 L446.1,56.0 L446.9,56.9 L447.8,58.0 L448.6,59.3 L449.4,60.8 L450.2,62.3 L451.0,63.9 L451.8,65.4 L452.6,66.9 L453.4,68.3 L454.2,69.6 L455.1,70.7 L455.9,71.7 L456.7,72.4 L457.5,72.9 L458.3,73.1 L459.1,73.1 L459.9,72.9 L460.8,72.4 L461.6,71.7 L462.4,70.9 L463.2,69.9 L464.0,68.7 L464.8,67.5 L465.6,66.2 L466.4,64.9 L467.2,63.6 L468.1,62.3 L468.9,61.2 L469.7,60.2 L470.5,59.3 L471.3,58.5 L472.1,58.0 L472.9,57.7 L473.8,57.6 L474.6,57.7 L475.4,58.0 L476.2,58.5 L477.0,59.3 L477.8,60.2 L478.6,61.2 L479.4,62.3 L480.2,63.6 L481.1,64.9 L481.9,66.2 L482.7,67.5 L483.5,68.7 L484.3,69.9 L485.1,70.9 L485.9,71.7 L486.8,72.4 L487.6,72.9 L488.4,73.1 L489.2,73.1 L490.0,72.9 L490.8,72.4 L491.6,71.7 L492.4,70.7 L493.2,69.6 L494.1,68.3 L494.9,66.9 L495.7,65.4 L496.5,63.9 L497.3,62.3 L498.1,60.8 L498.9,59.3 L499.8,58.0 L500.6,56.9 L501.4,56.0 L502.2,55.3 L503.0,54.9 L503.8,54.8 L504.6,55.0 L505.4,55.5 L506.2,56.3 L507.1,57.4 L507.9,58.8 L508.7,60.4 L509.5,62.2 L510.3,64.1 L511.1,66.1 L511.9,68.1 L512.8,70.2 L513.6,72.1 L514.4,73.8 L515.2,75.4 L516.0,76.6 L516.8,77.6 L517.6,78.2 L518.4,78.4 L519.2,78.3 L520.1,77.7 L520.9,76.7 L521.7,75.3 L522.5,73.5 L523.3,71.5 L524.1,69.2 L524.9,66.7 L525.8,64.0 L526.6,61.3 L527.4,58.7 L528.2,56.1 L529.0,53.8 L529.8,51.7 L530.6,50.0 L531.4,48.7 L532.2,47.8 L533.1,47.4 L533.9,47.6 L534.7,48.3 L535.5,49.5 L536.3,51.2 L537.1,53.4 L537.9,56.1 L538.8,59.0 L539.6,62.2 L540.4,65.6 L541.2,69.1 L542.0,72.5 L542.8,75.8 L543.6,78.8 L544.4,81.5 L545.2,83.8 L546.1,85.6 L546.9,86.7 L547.7,87.3 L548.5,87.1 L549.3,86.3 L550.1,84.9 L550.9,82.8 L551.8,80.1 L552.6,76.8 L553.4,73.2 L554.2,69.2 L555.0,65.0 L555.8,60.7 L556.6,56.4 L557.4,52.4 L558.2,48.6 L559.1,45.2 L559.9,42.3 L560.7,40.1 L561.5,38.6 L562.3,37.9 L563.1,37.9 L563.9,38.8 L564.8,40.5 L565.6,43.0 L566.4,46.2 L567.2,50.0 L568.0,54.3 L568.8,59.1 L569.6,64.1 L570.4,69.2 L571.2,74.3 L572.1,79.2 L572.9,83.7 L573.7,87.8 L574.5,91.2 L575.3,93.9 L576.1,95.8 L576.9,96.8 L577.8,96.8 L578.6,95.9 L579.4,94.0 L580.2,91.2 L581.0,87.6 L581.8,83.3 L582.6,78.3 L583.4,72.9 L584.2,67.1 L585.1,61.2 L585.9,55.4 L586.7,49.8 L587.5,44.5 L588.3,39.8 L589.1,35.8 L589.9,32.6 L590.8,30.4 L591.6,29.2 L592.4,29.0 L593.2,29.9 L594.0,31.9 L594.8,34.9 L595.6,38.9 L596.4,43.7 L597.2,49.1 L598.1,55.1 L598.9,61.5 L599.7,68.0 L600.5,74.5 L601.3,80.7 L602.1,86.6 L602.9,91.8 L603.8,96.3 L604.6,99.9 L605.4,102.5 L606.2,103.9 L607.0,104.2 L607.8,103.4 L608.6,101.3 L609.4,98.2 L610.2,94.1 L611.1,89.0 L611.9,83.2 L612.7,76.8 L613.5,70.1 L614.3,63.1 L615.1,56.1 L615.9,49.4 L616.8,43.1 L617.6,37.5 L618.4,32.6 L619.2,28.7 L620.0,25.9 L620.8,24.2 L621.6,23.7 L622.4,24.5 L623.2,26.5 L624.1,29.6 L624.9,33.8 L625.7,39.0 L626.5,44.9 L627.3,51.5 L628.1,58.5 L628.9,65.7 L629.8,72.8 L630.6,79.8 L631.4,86.3 L632.2,92.2 L633.0,97.3 L633.8,101.5 L634.6,104.5 L635.4,106.4 L636.2,107.0 L637.1,106.4 L637.9,104.5 L638.7,101.5 L639.5,97.3 L640.3,92.2 L641.1,86.3 L641.9,79.8 L642.8,72.8 L643.6,65.7 L644.4,58.5 L645.2,51.5 L646.0,44.9 L646.8,39.0 L647.6,33.8 L648.4,29.6 L649.2,26.5 L650.1,24.5 L650.9,23.7 L651.7,24.2 L652.5,25.9 L653.3,28.7 L654.1,32.6 L654.9,37.5 L655.8,43.1 L656.6,49.4 L657.4,56.1 L658.2,63.1 L659.0,70.1 L659.8,76.8 L660.6,83.2 L661.4,89.0 L662.2,94.1 L663.1,98.2 L663.9,101.3 L664.7,103.4 L665.5,104.2 L666.3,103.9 L667.1,102.5 L667.9,99.9 L668.8,96.3 L669.6,91.8 L670.4,86.6 L671.2,80.7 L672.0,74.5 L672.8,68.0 L673.6,61.5 L674.4,55.1 L675.2,49.1 L676.1,43.7 L676.9,38.9 L677.7,34.9 L678.5,31.9 L679.3,29.9 L680.1,29.0 L680.9,29.2 L681.8,30.4 L682.6,32.6 L683.4,35.8 L684.2,39.8 L685.0,44.5 L685.8,49.8 L686.6,55.4 L687.4,61.2 L688.2,67.1 L689.1,72.9 L689.9,78.3 L690.7,83.3 L691.5,87.6 L692.3,91.2 L693.1,94.0 L693.9,95.9 L694.8,96.8 L695.6,96.8 L696.4,95.8 L697.2,93.9 L698.0,91.2 L698.8,87.8 L699.6,83.7 L700.4,79.2 L701.2,74.3 L702.1,69.2 L702.9,64.1 L703.7,59.1 L704.5,54.3 L705.3,50.0 L706.1,46.2 L706.9,43.0 L707.8,40.5 L708.6,38.8 L709.4,37.9 L710.2,37.9 L711.0,38.6 L711.8,40.1 L712.6,42.3 L713.4,45.2 L714.2,48.6 L715.1,52.4 L715.9,56.4 L716.7,60.7 L717.5,65.0 L718.3,69.2 L719.1,73.2 L719.9,76.8 L720.8,80.1 L721.6,82.8 L722.4,84.9 L723.2,86.3 L724.0,87.1 L724.8,87.3 L725.6,86.7 L726.4,85.6 L727.2,83.8 L728.1,81.5 L728.9,78.8 L729.7,75.8 L730.5,72.5 L731.3,69.1 L732.1,65.6 L732.9,62.2 L733.8,59.0 L734.6,56.1 L735.4,53.4 L736.2,51.2 L737.0,49.5 L737.8,48.3 L738.6,47.6 L739.4,47.4 L740.2,47.8 L741.1,48.7 L741.9,50.0 L742.7,51.7 L743.5,53.8 L744.3,56.1 L745.1,58.7 L745.9,61.3 L746.8,64.0 L747.6,66.7 L748.4,69.2 L749.2,71.5 L750.0,73.5 L750.8,75.3 L751.6,76.7 L752.4,77.7 L753.2,78.3 L754.1,78.4 L754.9,78.2 L755.7,77.6 L756.5,76.6 L757.3,75.4 L758.1,73.8 L758.9,72.1 L759.8,70.2 L760.6,68.1 L761.4,66.1 L762.2,64.1 L763.0,62.2 L763.8,60.4 L764.6,58.8 L765.4,57.4 L766.2,56.3 L767.1,55.5 L767.9,55.0 L768.7,54.8 L769.5,54.9 L770.3,55.3 L771.1,56.0 L771.9,56.9 L772.8,58.0 L773.6,59.3 L774.4,60.8 L775.2,62.3 L776.0,63.9 L776.8,65.4 L777.6,66.9 L778.4,68.3 L779.2,69.6 L780.1,70.7 L780.9,71.7 L781.7,72.4 L782.5,72.9 L783.3,73.1 L784.1,73.1 L784.9,72.9 L785.8,72.4 L786.6,71.7 L787.4,70.9 L788.2,69.9 L789.0,68.7 L789.8,67.5 L790.6,66.2 L791.4,64.9 L792.2,63.6 L793.1,62.3 L793.9,61.2 L794.7,60.2 L795.5,59.3 L796.3,58.5 L797.1,58.0 L797.9,57.7 L798.8,57.6 L799.6,57.7 L800.4,58.0 L801.2,58.5 L802.0,59.3 L802.8,60.2 L803.6,61.2 L804.4,62.3 L805.2,63.6 L806.1,64.9 L806.9,66.2 L807.7,67.5 L808.5,68.7 L809.3,69.9 L810.1,70.9 L810.9,71.7 L811.8,72.4 L812.6,72.9 L813.4,73.1 L814.2,73.1 L815.0,72.9 L815.8,72.4 L816.6,71.7 L817.4,70.7 L818.2,69.6 L819.1,68.3 L819.9,66.9 L820.7,65.4 L821.5,63.9 L822.3,62.3 L823.1,60.8 L823.9,59.3 L824.8,58.0 L825.6,56.9 L826.4,56.0 L827.2,55.3 L828.0,54.9 L828.8,54.8 L829.6,55.0 L830.4,55.5 L831.2,56.3 L832.1,57.4 L832.9,58.8 L833.7,60.4 L834.5,62.2 L835.3,64.1 L836.1,66.1 L836.9,68.1 L837.8,70.2 L838.6,72.1 L839.4,73.8 L840.2,75.4 L841.0,76.6 L841.8,77.6 L842.6,78.2 L843.4,78.4 L844.2,78.3 L845.1,77.7 L845.9,76.7 L846.7,75.3 L847.5,73.5 L848.3,71.5 L849.1,69.2 L849.9,66.7 L850.8,64.0 L851.6,61.3 L852.4,58.7 L853.2,56.1 L854.0,53.8 L854.8,51.7 L855.6,50.0 L856.4,48.7 L857.2,47.8 L858.1,47.4 L858.9,47.6 L859.7,48.3 L860.5,49.5 L861.3,51.2 L862.1,53.4 L862.9,56.1 L863.8,59.0 L864.6,62.2 L865.4,65.6 L866.2,69.1 L867.0,72.5 L867.8,75.8 L868.6,78.8 L869.4,81.5 L870.2,83.8 L871.1,85.6 L871.9,86.7 L872.7,87.3 L873.5,87.1 L874.3,86.3 L875.1,84.9 L875.9,82.8 L876.8,80.1 L877.6,76.8 L878.4,73.2 L879.2,69.2 L880.0,65.0" fill="none" stroke="#000" stroke-width="1.5"/>
<path d="M230.0,205.0 L880.0,205.0" fill="none" stroke="#000" stroke-width="0.75"/>
<path d="M230.0,205.0 L230.8,199.9 L231.6,194.8 L232.4,189.9 L233.2,185.4 L234.1,181.4 L234.9,178.0 L235.7,175.4 L236.5,173.6 L237.3,172.7 L238.1,172.8 L238.9,173.8 L239.8,175.8 L240.6,178.8 L241.4,182.6 L242.2,187.1 L243.0,192.3 L243.8,197.9 L244.6,203.9 L245.4,205.0 L246.2,205.0 L247.1,205.0 L247.9,205.0 L248.7,205.0 L249.5,205.0 L250.3,205.0 L251.1,205.0 L251.9,205.0 L252.8,205.0 L253.6,205.0 L254.4,205.0 L255.2,205.0 L256.0,205.0 L256.8,205.0 L257.6,205.0 L258.4,205.0 L259.2,205.0 L260.1,200.5 L260.9,193.6 L261.7,186.9 L262.5,180.6 L263.3,175.0 L264.1,170.2 L264.9,166.5 L265.8,163.8 L266.6,162.3 L267.4,162.2 L268.2,163.3 L269.0,165.6 L269.8,169.2 L270.6,173.9 L271.4,179.6 L272.2,186.1 L273.1,193.2 L273.9,200.8 L274.7,205.0 L275.5,205.0 L276.3,205.0 L277.1,205.0 L277.9,205.0 L278.8,205.0 L279.6,205.0 L280.4,205.0 L281.2,205.0 L282.0,205.0 L282.8,205.0 L283.6,205.0 L284.4,205.0 L285.2,205.0 L286.1,205.0 L286.9,205.0 L287.7,205.0 L288.5,205.0 L289.3,202.7 L290.1,194.5 L290.9,186.5 L291.8,179.0 L292.6,172.2 L293.4,166.5 L294.2,161.8 L295.0,158.4 L295.8,156.4 L296.6,155.8 L297.4,156.8 L298.2,159.1 L299.1,162.9 L299.9,167.9 L300.7,174.0 L301.5,181.1 L302.3,188.9 L303.1,197.2 L303.9,205.0 L304.8,205.0 L305.6,205.0 L306.4,205.0 L307.2,205.0 L308.0,205.0 L308.8,205.0 L309.6,205.0 L310.4,205.0 L311.2,205.0 L312.1,205.0 L312.9,205.0 L313.7,205.0 L314.5,205.0 L315.3,205.0 L316.1,205.0 L316.9,205.0 L317.8,205.0 L318.6,205.0 L319.4,197.2 L320.2,188.9 L321.0,181.1 L321.8,174.0 L322.6,167.9 L323.4,162.9 L324.2,159.1 L325.1,156.8 L325.9,155.8 L326.7,156.4 L327.5,158.4 L328.3,161.8 L329.1,166.5 L329.9,172.2 L330.8,179.0 L331.6,186.5 L332.4,194.5 L333.2,202.7 L334.0,205.0 L334.8,205.0 L335.6,205.0 L336.4,205.0 L337.2,205.0 L338.1,205.0 L338.9,205.0 L339.7,205.0 L340.5,205.0 L341.3,205.0 L342.1,205.0 L342.9,205.0 L343.8,205.0 L344.6,205.0 L345.4,205.0 L346.2,205.0 L347.0,205.0 L347.8,205.0 L348.6,200.8 L349.4,193.2 L350.2,186.1 L351.1,179.6 L351.9,173.9 L352.7,169.2 L353.5,165.6 L354.3,163.3 L355.1,162.2 L355.9,162.3 L356.8,163.8 L357.6,166.5 L358.4,170.2 L359.2,175.0 L360.0,180.6 L360.8,186.9 L361.6,193.6 L362.4,200.5 L363.2,205.0 L364.1,205.0 L364.9,205.0 L365.7,205.0 L366.5,205.0 L367.3,205.0 L368.1,205.0 L368.9,205.0 L369.8,205.0 L370.6,205.0 L371.4,205.0 L372.2,205.0 L373.0,205.0 L373.8,205.0 L374.6,205.0 L375.4,205.0 L376.2,205.0 L377.1,205.0 L377.9,203.9 L378.7,197.9 L379.5,192.3 L380.3,187.1 L381.1,182.6 L381.9,178.8 L382.8,175.8 L383.6,173.8 L384.4,172.8 L385.2,172.7 L386.0,173.6 L386.8,175.4 L387.6,178.0 L388.4,181.4 L389.2,185.4 L390.1,189.9 L390.9,194.8 L391.7,199.9 L392.5,205.0 L393.3,205.0 L394.1,205.0 L394.9,205.0 L395.8,205.0 L396.6,205.0 L397.4,205.0 L398.2,205.0 L399.0,205.0 L399.8,205.0 L400.6,205.0 L401.4,205.0 L402.2,205.0 L403.1,205.0 L403.9,205.0 L404.7,205.0 L405.5,205.0 L406.3,205.0 L407.1,205.0 L407.9,201.7 L408.8,197.9 L409.6,194.4 L410.4,191.2 L411.2,188.6 L412.0,186.6 L412.8,185.1 L413.6,184.3 L414.4,184.1 L415.2,184.5 L416.1,185.5 L416.9,187.1 L417.7,189.2 L418.5,191.7 L419.3,194.5 L420.1,197.5 L420.9,200.6 L421.8,203.8 L422.6,205.0 L423.4,205.0 L424.2,205.0 L425.0,205.0 L425.8,205.0 L426.6,205.0 L427.4,205.0 L428.2,205.0 L429.1,205.0 L429.9,205.0 L430.7,205.0 L431.5,205.0 L432.3,205.0 L433.1,205.0 L433.9,205.0 L434.8,205.0 L435.6,205.0 L436.4,205.0 L437.2,203.9 L438.0,201.6 L438.8,199.5 L439.6,197.6 L440.4,196.0 L441.2,194.7 L442.1,193.7 L442.9,193.1 L443.7,192.9 L444.5,193.0 L445.3,193.5 L446.1,194.3 L446.9,195.4 L447.8,196.7 L448.6,198.3 L449.4,200.0 L450.2,201.8 L451.0,203.6 L451.8,205.0 L452.6,205.0 L453.4,205.0 L454.2,205.0 L455.1,205.0 L455.9,205.0 L456.7,205.0 L457.5,205.0 L458.3,205.0 L459.1,205.0 L459.9,205.0 L460.8,205.0 L461.6,205.0 L462.4,205.0 L463.2,205.0 L464.0,205.0 L464.8,205.0 L465.6,205.0 L466.4,204.9 L467.2,203.3 L468.1,201.8 L468.9,200.5 L469.7,199.2 L470.5,198.2 L471.3,197.3 L472.1,196.7 L472.9,196.3 L473.8,196.2 L474.6,196.3 L475.4,196.7 L476.2,197.3 L477.0,198.2 L477.8,199.2 L478.6,200.5 L479.4,201.8 L480.2,203.3 L481.1,204.9 L481.9,205.0 L482.7,205.0 L483.5,205.0 L484.3,205.0 L485.1,205.0 L485.9,205.0 L486.8,205.0 L487.6,205.0 L488.4,205.0 L489.2,205.0 L490.0,205.0 L490.8,205.0 L491.6,205.0 L492.4,205.0 L493.2,205.0 L494.1,205.0 L494.9,205.0 L495.7,205.0 L496.5,203.6 L497.3,201.8 L498.1,200.0 L498.9,198.3 L499.8,196.7 L500.6,195.4 L501.4,194.3 L502.2,193.5 L503.0,193.0 L503.8,192.9 L504.6,193.1 L505.4,193.7 L506.2,194.7 L507.1,196.0 L507.9,197.6 L508.7,199.5 L509.5,201.6 L510.3,203.9 L511.1,205.0 L511.9,205.0 L512.8,205.0 L513.6,205.0 L514.4,205.0 L515.2,205.0 L516.0,205.0 L516.8,205.0 L517.6,205.0 L518.4,205.0 L519.2,205.0 L520.1,205.0 L520.9,205.0 L521.7,205.0 L522.5,205.0 L523.3,205.0 L524.1,205.0 L524.9,205.0 L525.8,203.8 L526.6,200.6 L527.4,197.5 L528.2,194.5 L529.0,191.7 L529.8,189.2 L530.6,187.1 L531.4,185.5 L532.2,184.5 L533.1,184.1 L533.9,184.3 L534.7,185.1 L535.5,186.6 L536.3,188.6 L537.1,191.2 L537.9,194.4 L538.8,197.9 L539.6,201.7 L540.4,205.0 L541.2,205.0 L542.0,205.0 L542.8,205.0 L543.6,205.0 L544.4,205.0 L545.2,205.0 L546.1,205.0 L546.9,205.0 L547.7,205.0 L548.5,205.0 L549.3,205.0 L550.1,205.0 L550.9,205.0 L551.8,205.0 L552.6,205.0 L553.4,205.0 L554.2,205.0 L555.0,205.0 L555.8,199.9 L556.6,194.8 L557.4,189.9 L558.2,185.4 L559.1,181.4 L559.9,178.0 L560.7,175.4 L561.5,173.6 L562.3,172.7 L563.1,172.8 L563.9,173.8 L564.8,175.8 L565.6,178.8 L566.4,182.6 L567.2,187.1 L568.0,192.3 L568.8,197.9 L569.6,203.9 L570.4,205.0 L571.2,205.0 L572.1,205.0 L572.9,205.0 L573.7,205.0 L574.5,205.0 L575.3,205.0 L576.1,205.0 L576.9,205.0 L577.8,205.0 L578.6,205.0 L579.4,205.0 L580.2,205.0 L581.0,205.0 L581.8,205.0 L582.6,205.0 L583.4,205.0 L584.2,205.0 L585.1,200.5 L585.9,193.6 L586.7,186.9 L587.5,180.6 L588.3,175.0 L589.1,170.2 L589.9,166.5 L590.8,163.8 L591.6,162.3 L592.4,162.2 L593.2,163.3 L594.0,165.6 L594.8,169.2 L595.6,173.9 L596.4,179.6 L597.2,186.1 L598.1,193.2 L598.9,200.8 L599.7,205.0 L600.5,205.0 L601.3,205.0 L602.1,205.0 L602.9,205.0 L603.8,205.0 L604.6,205.0 L605.4,205.0 L606.2,205.0 L607.0,205.0 L607.8,205.0 L608.6,205.0 L609.4,205.0 L610.2,205.0 L611.1,205.0 L611.9,205.0 L612.7,205.0 L613.5,205.0 L614.3,202.7 L615.1,194.5 L615.9,186.5 L616.8,179.0 L617.6,172.2 L618.4,166.5 L619.2,161.8 L620.0,158.4 L620.8,156.4 L621.6,155.8 L622.4,156.8 L623.2,159.1 L624.1,162.9 L624.9,167.9 L625.7,174.0 L626.5,181.1 L627.3,188.9 L628.1,197.2 L628.9,205.0 L629.8,205.0 L630.6,205.0 L631.4,205.0 L632.2,205.0 L633.0,205.0 L633.8,205.0 L634.6,205.0 L635.4,205.0 L636.2,205.0 L637.1,205.0 L637.9,205.0 L638.7,205.0 L639.5,205.0 L640.3,205.0 L641.1,205.0 L641.9,205.0 L642.8,205.0 L643.6,205.0 L644.4,197.2 L645.2,188.9 L646.0,181.1 L646.8,174.0 L647.6,167.9 L648.4,162.9 L649.2,159.1 L650.1,156.8 L650.9,155.8 L651.7,156.4 L652.5,158.4 L653.3,161.8 L654.1,166.5 L654.9,172.2 L655.8,179.0 L656.6,186.5 L657.4,194.5 L658.2,202.7 L659.0,205.0 L659.8,205.0 L660.6,205.0 L661.4,205.0 L662.2,205.0 L663.1,205.0 L663.9,205.0 L664.7,205.0 L665.5,205.0 L666.3,205.0 L667.1,205.0 L667.9,205.0 L668.8,205.0 L669.6,205.0 L670.4,205.0 L671.2,205.0 L672.0,205.0 L672.8,205.0 L673.6,200.8 L674.4,193.2 L675.2,186.1 L676.1,179.6 L676.9,173.9 L677.7,169.2 L678.5,165.6 L679.3,163.3 L680.1,162.2 L680.9,162.3 L681.8,163.8 L682.6,166.5 L683.4,170.2 L684.2,175.0 L685.0,180.6 L685.8,186.9 L686.6,193.6 L687.4,200.5 L688.2,205.0 L689.1,205.0 L689.9,205.0 L690.7,205.0 L691.5,205.0 L692.3,205.0 L693.1,205.0 L693.9,205.0 L694.8,205.0 L695.6,205.0 L696.4,205.0 L697.2,205.0 L698.0,205.0 L698.8,205.0 L699.6,205.0 L700.4,205.0 L701.2,205.0 L702.1,205.0 L702.9,203.9 L703.7,197.9 L704.5,192.3 L705.3,187.1 L706.1,182.6 L706.9,178.8 L707.8,175.8 L708.6,173.8 L709.4,172.8 L710.2,172.7 L711.0,173.6 L711.8,175.4 L712.6,178.0 L713.4,181.4 L714.2,185.4 L715.1,189.9 L715.9,194.8 L716.7,199.9 L717.5,205.0 L718.3,205.0 L719.1,205.0 L719.9,205.0 L720.8,205.0 L721.6,205.0 L722.4,205.0 L723.2,205.0 L724.0,205.0 L724.8,205.0 L725.6,205.0 L726.4,205.0 L727.2,205.0 L728.1,205.0 L728.9,205.0 L729.7,205.0 L730.5,205.0 L731.3,205.0 L732.1,205.0 L732.9,201.7 L733.8,197.9 L734.6,194.4 L735.4,191.2 L736.2,188.6 L737.0,186.6 L737.8,185.1 L738.6,184.3 L739.4,184.1 L740.2,184.5 L741.1,185.5 L741.9,187.1 L742.7,189.2 L743.5,191.7 L744.3,194.5 L745.1,197.5 L745.9,200.6 L746.8,203.8 L747.6,205.0 L748.4,205.0 L749.2,205.0 L750.0,205.0 L750.8,205.0 L751.6,205.0 L752.4,205.0 L753.2,205.0 L754.1,205.0 L754.9,205.0 L755.7,205.0 L756.5,205.0 L757.3,205.0 L758.1,205.0 L758.9,205.0 L759.8,205.0 L760.6,205.0 L761.4,205.0 L762.2,203.9 L763.0,201.6 L763.8,199.5 L764.6,197.6 L765.4,196.0 L766.2,194.7 L767.1,193.7 L767.9,193.1 L768.7,192.9 L769.5,193.0 L770.3,193.5 L771.1,194.3 L771.9,195.4 L772.8,196.7 L773.6,198.3 L774.4,200.0 L775.2,201.8 L776.0,203.6 L776.8,205.0 L777.6,205.0 L778.4,205.0 L779.2,205.0 L780.1,205.0 L780.9,205.0 L781.7,205.0 L782.5,205.0 L783.3,205.0 L784.1,205.0 L784.9,205.0 L785.8,205.0 L786.6,205.0 L787.4,205.0 L788.2,205.0 L789.0,205.0 L789.8,205.0 L790.6,205.0 L791.4,204.9 L792.2,203.3 L793.1,201.8 L793.9,200.5 L794.7,199.2 L795.5,198.2 L796.3,197.3 L797.1,196.7 L797.9,196.3 L798.8,196.2 L799.6,196.3 L800.4,196.7 L801.2,197.3 L802.0,198.2 L802.8,199.2 L803.6,200.5 L804.4,201.8 L805.2,203.3 L806.1,204.9 L806.9,205.0 L807.7,205.0 L808.5,205.0 L809.3,205.0 L810.1,205.0 L810.9,205.0 L811.8,205.0 L812.6,205.0 L813.4,205.0 L814.2,205.0 L815.0,205.0 L815.8,205.0 L816.6,205.0 L817.4,205.0 L818.2,205.0 L819.1,205.0 L819.9,205.0 L820.7,205.0 L821.5,203.6 L822.3,201.8 L823.1,200.0 L823.9,198.3 L824.8,196.7 L825.6,195.4 L826.4,194.3 L827.2,193.5 L828.0,193.0 L828.8,192.9 L829.6,193.1 L830.4,193.7 L831.2,194.7 L832.1,196.0 L832.9,197.6 L833.7,199.5 L834.5,201.6 L835.3,203.9 L836.1,205.0 L836.9,205.0 L837.8,205.0 L838.6,205.0 L839.4,205.0 L840.2,205.0 L841.0,205.0 L841.8,205.0 L842.6,205.0 L843.4,205.0 L844.2,205.0 L845.1,205.0 L845.9,205.0 L846.7,205.0 L847.5,205.0 L848.3,205.0 L849.1,205.0 L849.9,205.0 L850.8,203.8 L851.6,200.6 L852.4,197.5 L853.2,194.5 L854.0,191.7 L854.8,189.2 L855.6,187.1 L856.4,185.5 L857.2,184.5 L858.1,184.1 L858.9,184.3 L859.7,185.1 L860.5,186.6 L861.3,188.6 L862.1,191.2 L862.9,194.4 L863.8,197.9 L864.6,201.7 L865.4,205.0 L866.2,205.0 L867.0,205.0 L867.8,205.0 L868.6,205.0 L869.4,205.0 L870.2,205.0 L871.1,205.0 L871.9,205.0 L872.7,205.0 L873.5,205.0 L874.3,205.0 L875.1,205.0 L875.9,205.0 L876.8,205.0 L877.6,205.0 L878.4,205.0 L879.2,205.0 L880.0,205.0" fill="none" stroke="#000" stroke-width="1.5"/>
<path d="M230.0,340.0 L880.0,340.0" fill="none" stroke="#000" stroke-width="0.75"/>
<path d="M230.0,310.6 L232.2,309.7 L234.3,308.9 L236.5,308.0 L238.7,307.2 L240.8,306.3 L243.0,305.5 L245.2,304.6 L247.3,303.8 L249.5,303.0 L251.7,302.2 L253.8,301.4 L256.0,300.7 L258.2,299.9 L260.3,299.2 L262.5,298.5 L264.7,297.8 L266.8,297.1 L269.0,296.5 L271.2,295.9 L273.3,295.3 L275.5,294.7 L277.7,294.2 L279.8,293.7 L282.0,293.2 L284.2,292.8 L286.3,292.3 L288.5,292.0 L290.7,291.6 L292.8,291.3 L295.0,291.0 L297.2,290.8 L299.3,290.5 L301.5,290.4 L303.7,290.2 L305.8,290.1 L308.0,290.0 L310.2,290.0 L312.3,290.0 L314.5,290.0 L316.7,290.1 L318.8,290.2 L321.0,290.4 L323.2,290.5 L325.3,290.8 L327.5,291.0 L329.7,291.3 L331.8,291.6 L334.0,292.0 L336.2,292.3 L338.3,292.8 L340.5,293.2 L342.7,293.7 L344.8,294.2 L347.0,294.7 L349.2,295.3 L351.3,295.9 L353.5,296.5 L355.7,297.1 L357.8,297.8 L360.0,298.5 L362.2,299.2 L364.3,299.9 L366.5,300.7 L368.7,301.4 L370.8,302.2 L373.0,303.0 L375.2,303.8 L377.3,304.6 L379.5,305.5 L381.7,306.3 L383.8,307.2 L386.0,308.0 L388.2,308.9 L390.3,309.7 L392.5,310.6 L394.7,311.5 L396.8,312.3 L399.0,313.2 L401.2,314.0 L403.3,314.9 L405.5,315.7 L407.7,316.5 L409.8,317.4 L412.0,318.2 L414.2,319.0 L416.3,319.7 L418.5,320.5 L420.7,321.3 L422.8,322.0 L425.0,322.7 L427.2,323.4 L429.3,324.0 L431.5,324.7 L433.7,325.3 L435.8,325.9 L438.0,326.5 L440.2,327.0 L442.3,327.5 L444.5,328.0 L446.7,328.4 L448.8,328.8 L451.0,329.2 L453.2,329.6 L455.3,329.9 L457.5,330.2 L459.7,330.4 L461.8,330.6 L464.0,330.8 L466.2,331.0 L468.3,331.1 L470.5,331.1 L472.7,331.2 L474.8,331.2 L477.0,331.1 L479.2,331.1 L481.3,331.0 L483.5,330.8 L485.7,330.6 L487.8,330.4 L490.0,330.2 L492.2,329.9 L494.3,329.6 L496.5,329.2 L498.7,328.8 L500.8,328.4 L503.0,328.0 L505.2,327.5 L507.3,327.0 L509.5,326.5 L511.7,325.9 L513.8,325.3 L516.0,324.7 L518.2,324.0 L520.3,323.4 L522.5,322.7 L524.7,322.0 L526.8,321.3 L529.0,320.5 L531.2,319.7 L533.3,319.0 L535.5,318.2 L537.7,317.4 L539.8,316.5 L542.0,315.7 L544.2,314.9 L546.3,314.0 L548.5,313.2 L550.7,312.3 L552.8,311.5 L555.0,310.6 L557.2,309.7 L559.3,308.9 L561.5,308.0 L563.7,307.2 L565.8,306.3 L568.0,305.5 L570.2,304.6 L572.3,303.8 L574.5,303.0 L576.7,302.2 L578.8,301.4 L581.0,300.7 L583.2,299.9 L585.3,299.2 L587.5,298.5 L589.7,297.8 L591.8,297.1 L594.0,296.5 L596.2,295.9 L598.3,295.3 L600.5,294.7 L602.7,294.2 L604.8,293.7 L607.0,293.2 L609.2,292.8 L611.3,292.3 L613.5,292.0 L615.7,291.6 L617.8,291.3 L620.0,291.0 L622.2,290.8 L624.3,290.5 L626.5,290.4 L628.7,290.2 L630.8,290.1 L633.0,290.0 L635.2,290.0 L637.3,290.0 L639.5,290.0 L641.7,290.1 L643.8,290.2 L646.0,290.4 L648.2,290.5 L650.3,290.8 L652.5,291.0 L654.7,291.3 L656.8,291.6 L659.0,292.0 L661.2,292.3 L663.3,292.8 L665.5,293.2 L667.7,293.7 L669.8,294.2 L672.0,294.7 L674.2,295.3 L676.3,295.9 L678.5,296.5 L680.7,297.1 L682.8,297.8 L685.0,298.5 L687.2,299.2 L689.3,299.9 L691.5,300.7 L693.7,301.4 L695.8,302.2 L698.0,303.0 L700.2,303.8 L702.3,304.6 L704.5,305.5 L706.7,306.3 L708.8,307.2 L711.0,308.0 L713.2,308.9 L715.3,309.7 L717.5,310.6 L719.7,311.5 L721.8,312.3 L724.0,313.2 L726.2,314.0 L728.3,314.9 L730.5,315.7 L732.7,316.5 L734.8,317.4 L737.0,318.2 L739.2,319.0 L741.3,319.7 L743.5,320.5 L745.7,321.3 L747.8,322.0 L750.0,322.7 L752.2,323.4 L754.3,324.0 L756.5,324.7 L758.7,325.3 L760.8,325.9 L763.0,326.5 L765.2,327.0 L767.3,327.5 L769.5,328.0 L771.7,328.4 L773.8,328.8 L776.0,329.2 L778.2,329.6 L780.3,329.9 L782.5,330.2 L784.7,330.4 L786.8,330.6 L789.0,330.8 L791.2,331.0 L793.3,331.1 L795.5,331.1 L797.7,331.2 L799.8,331.2 L802.0,331.1 L804.2,331.1 L806.3,331.0 L808.5,330.8 L810.7,330.6 L812.8,330.4 L815.0,330.2 L817.2,329.9 L819.3,329.6 L821.5,329.2 L823.7,328.8 L825.8,328.4 L828.0,328.0 L830.2,327.5 L832.3,327.0 L834.5,326.5 L836.7,325.9 L838.8,325.3 L841.0,324.7 L843.2,324.0 L845.3,323.4 L847.5,322.7 L849.7,322.0 L851.8,321.3 L854.0,320.5 L856.2,319.7 L858.3,319.0 L860.5,318.2 L862.7,317.4 L864.8,316.5 L867.0,315.7 L869.2,314.9 L871.3,314.0 L873.5,313.2 L875.7,312.3 L877.8,311.5 L880.0,310.6" fill="none" stroke="#000" stroke-width="1.5"/>
</svg>
